<svg xmlns="http://www.w3.org/2000/svg" viewBox="0 0 176 25" fill="none">
<path d="M42.552 13.4548L44.1882 9.05021C44.2284 8.9516 44.2649 8.90048 44.3014 8.90048C44.338 8.90048 44.3708 8.9516 44.4074 9.05021L46.0436 13.4548H42.552ZM44.5206 6.1467H41.2372C41.2372 7.00132 41.628 7.76464 42.2379 8.27229L38.1438 18.2867H40.6857L41.8106 15.4124H46.7813L47.8952 18.2867H50.4372L45.9084 7.18758C45.6345 6.5521 45.1707 6.20148 44.5169 6.15035L44.5206 6.1467Z" fill="black"/>
<path d="M59.8636 8.2175V6.15035H51.4342V15.6753C51.4342 16.53 51.6935 17.1764 52.2085 17.622C52.7271 18.0675 53.4064 18.2867 54.2538 18.2867H59.8636V16.2195H54.5971C54.0711 16.2195 53.8082 16.0369 53.8082 15.6753V13.2466H59.6006V11.1795H53.8082V8.2175H59.8636Z" fill="black"/>
<path d="M67.4054 11.3402C67.0329 11.6214 66.4668 11.7602 65.7035 11.7602H63.7167V8.22116H65.7035C66.5727 8.22116 67.168 8.3709 67.4858 8.67403C67.8035 8.97351 67.9642 9.4264 67.9642 10.029C67.9642 10.6316 67.7779 11.0626 67.4091 11.3438L67.4054 11.3402ZM70.3345 10.0327C70.3345 8.77629 69.9181 7.81576 69.0854 7.15106C68.2527 6.48635 67.1278 6.154 65.7071 6.154H61.3354V18.2867H63.7094V13.8273H65.8203L68.6764 18.2867H71.5397L68.2564 13.3124C69.6406 12.7536 70.3308 11.6616 70.3308 10.0363H70.3345V10.0327Z" fill="black"/>
<path d="M80.2978 15.2553C79.6915 15.9639 78.8259 16.3181 77.7047 16.3181C76.5834 16.3181 75.7069 15.9639 75.1006 15.2553C74.4944 14.5468 74.1912 13.5132 74.1912 12.1546C74.1912 10.796 74.4944 9.78796 75.1006 9.10865C75.7069 8.42933 76.5761 8.08968 77.7047 8.08968C78.8332 8.08968 79.6988 8.42933 80.3051 9.10865C80.9113 9.78796 81.2108 10.8033 81.2108 12.1546C81.2108 13.5059 80.9077 14.5468 80.3014 15.2553H80.2978ZM77.712 6.1467C75.8347 6.1467 74.3885 6.67262 73.3731 7.7208C72.3578 8.77265 71.8502 10.2518 71.8502 12.1619C71.8502 14.072 72.3578 15.5694 73.3731 16.6468C74.3885 17.7242 75.8347 18.2648 77.712 18.2648C79.5892 18.2648 81.0245 17.7242 82.0326 16.6468C83.0442 15.5658 83.5482 14.072 83.5482 12.1619C83.5482 10.2518 83.0442 8.76899 82.0326 7.7208C81.0209 6.66896 79.5819 6.1467 77.712 6.1467Z" fill="black"/>
<path d="M100.363 15.6753C100.363 16.53 100.622 17.1764 101.137 17.622C101.656 18.0675 102.335 18.2867 103.183 18.2867H108.792V16.2195H103.526C103 16.2195 102.737 16.0369 102.737 15.6753V13.2466H108.529V11.1795H102.737V8.2175H108.792V6.15035H100.363V15.6753Z" fill="black"/>
<path d="M121.133 6.1467H118.339L115.732 9.70396C115.618 9.861 115.385 9.861 115.271 9.70396L112.671 6.1467H109.877L114.117 11.9209L109.439 18.283H112.233L115.297 14.1049C115.399 13.9661 115.607 13.9661 115.71 14.1049L118.781 18.2867H121.568L116.904 11.9245L121.137 6.15035H121.133V6.1467Z" fill="black"/>
<path d="M122.59 6.1467V18.283H124.964V8.52064C124.964 7.20949 123.902 6.1467 122.59 6.1467Z" fill="black"/>
<path d="M128.193 7.76097C127.028 8.83473 126.447 10.3066 126.447 12.1729C126.447 14.0392 127.028 15.5183 128.189 16.6249C129.351 17.7315 130.925 18.283 132.912 18.283C134.106 18.283 135.344 18.1333 136.63 17.8338V15.752C135.176 16.088 133.934 16.2524 132.904 16.2524C131.655 16.2524 130.655 15.8945 129.91 15.1823C129.164 14.4665 128.792 13.4621 128.792 12.1656C128.792 10.869 129.164 9.89752 129.906 9.21091C130.647 8.52429 131.677 8.18099 132.992 8.18099C133.967 8.18099 135.18 8.35264 136.63 8.6923V6.574C135.34 6.29278 134.128 6.15035 132.999 6.15035C130.961 6.15035 129.358 6.68722 128.193 7.76097Z" fill="black"/>
<path d="M146.184 15.2626C145.578 15.9712 144.712 16.3254 143.587 16.3254C142.462 16.3254 141.589 15.9712 140.983 15.2626C140.377 14.5541 140.07 13.5205 140.07 12.1619C140.07 10.8033 140.373 9.79161 140.983 9.1123C141.589 8.43299 142.459 8.09333 143.587 8.09333C144.716 8.09333 145.581 8.43299 146.188 9.1123C146.794 9.79161 147.093 10.8069 147.093 12.1619C147.093 13.5169 146.79 14.5541 146.184 15.2626ZM147.919 7.72446C146.907 6.67262 145.468 6.1467 143.594 6.1467C141.721 6.1467 140.271 6.67262 139.256 7.72446C138.24 8.7763 137.733 10.2554 137.733 12.1692C137.733 14.083 138.24 15.5767 139.256 16.6578C140.271 17.7389 141.717 18.2757 143.594 18.2757C145.472 18.2757 146.907 17.7352 147.919 16.6578C148.93 15.5767 149.434 14.083 149.434 12.1692C149.434 10.2554 148.93 8.7763 147.919 7.72446Z" fill="black"/>
<path d="M150.924 17.0888C150.968 17.0888 151.012 17.0887 151.052 17.0851C151.092 17.0851 151.129 17.0741 151.162 17.0595C151.195 17.0449 151.22 17.023 151.239 16.9938C151.257 16.9646 151.268 16.9244 151.268 16.8733C151.268 16.8294 151.26 16.7966 151.242 16.771C151.224 16.7454 151.202 16.7235 151.176 16.7126C151.151 16.698 151.118 16.6907 151.085 16.6834C151.052 16.6797 151.016 16.6761 150.983 16.6761H150.716V17.0888H150.928H150.924ZM151.016 16.5117C151.169 16.5117 151.286 16.5409 151.359 16.603C151.432 16.6651 151.472 16.7564 151.472 16.8842C151.472 17.0011 151.439 17.0888 151.374 17.1399C151.308 17.1947 151.228 17.2275 151.129 17.2348L151.501 17.8082H151.286L150.932 17.2495H150.716V17.8082H150.515V16.5081H151.019H151.016V16.5117ZM150.099 17.5343C150.147 17.6512 150.209 17.7498 150.293 17.8375C150.377 17.9215 150.472 17.9909 150.585 18.0383C150.698 18.0858 150.819 18.1114 150.95 18.1114C151.081 18.1114 151.198 18.0858 151.312 18.0383C151.421 17.9909 151.52 17.9215 151.6 17.8375C151.684 17.7535 151.746 17.6512 151.794 17.5343C151.841 17.4175 151.863 17.2933 151.863 17.1545C151.863 17.0157 151.841 16.8988 151.794 16.782C151.746 16.6687 151.684 16.5665 151.6 16.4825C151.516 16.3985 151.421 16.3327 151.312 16.2816C151.202 16.2341 151.081 16.2086 150.95 16.2086C150.819 16.2086 150.698 16.2341 150.585 16.2816C150.472 16.3291 150.377 16.3985 150.293 16.4825C150.209 16.5665 150.147 16.6651 150.099 16.782C150.052 16.8952 150.03 17.0194 150.03 17.1545C150.03 17.2896 150.052 17.4175 150.099 17.5343ZM149.913 16.7199C149.971 16.5847 150.052 16.4679 150.154 16.3693C150.256 16.2707 150.377 16.194 150.512 16.1355C150.647 16.0807 150.793 16.0515 150.946 16.0515C151.1 16.0515 151.242 16.0807 151.377 16.1355C151.512 16.1903 151.629 16.2707 151.732 16.3693C151.834 16.4679 151.914 16.5847 151.973 16.7199C152.031 16.855 152.06 17.0011 152.06 17.1581C152.06 17.3152 152.031 17.4686 151.973 17.6037C151.914 17.7389 151.834 17.8594 151.732 17.958C151.629 18.0566 151.512 18.1369 151.377 18.1917C151.242 18.2465 151.1 18.2757 150.946 18.2757C150.793 18.2757 150.651 18.2465 150.512 18.1917C150.377 18.1369 150.256 18.0566 150.154 17.958C150.052 17.8594 149.971 17.7389 149.913 17.6037C149.854 17.4686 149.825 17.3188 149.825 17.1581C149.825 16.9974 149.854 16.855 149.913 16.7199Z" fill="black"/>
<path d="M92.1748 16.0114C92.7482 16.0114 93.223 15.6571 93.5955 14.9486L96.1374 10.1605V18.283H98.4968V6.1467H95.9439L91.9556 13.0384C91.9155 13.1078 91.8643 13.1444 91.8023 13.1444C91.7402 13.1444 91.689 13.1078 91.6489 13.0384L88.1318 6.95018C87.8396 6.45348 87.3064 6.1467 86.7293 6.1467H84.107C84.107 7.00132 84.4978 7.76463 85.1077 8.26864V18.283H87.4671V10.1605L90.009 14.9486C90.3815 15.6571 90.8527 16.0114 91.4297 16.0114H92.1748Z" fill="black"/>
<path d="M26.8548 4.96702C26.559 4.96702 26.2777 5.01086 26.0805 5.06564C23.6445 4.93416 22.4794 5.46738 21.5006 5.46738C20.9126 5.46738 18.6811 4.41919 16.9207 3.72162C16.9207 3.72162 19.1486 3.15553 21.2632 3.15553C23.3779 3.15553 25.4633 4.3498 26.0769 5.06199C24.7402 1.8736 20.2844 0 17.7133 0C12.2897 0 9.30586 2.69169 5.36511 2.75743C4.90493 2.76474 3.63031 2.75743 3.63031 2.75743C3.63031 5.1679 4.53241 6.57401 4.9305 6.95749C3.94805 7.52358 0 12.476 0 14.7879L0.171654 15.2188L3.35274 15.6279L2.73551 18.8857L2.90717 19.3166L6.03712 19.7257L4.90493 23.5934L5.07659 24.0243C5.07659 24.0243 6.15765 24.4297 7.69523 24.4297C9.07577 24.4297 15.0325 24.5941 15.9346 16.9573C15.9383 16.9244 15.942 16.8952 15.9456 16.866C16.9974 20.9857 19.7549 21.7453 25.4268 21.7453C27.0301 21.7453 26.3617 19.6197 26.537 18.9222C26.7124 18.8162 26.8511 18.5204 26.7489 18.1735C26.8511 18.0858 26.9863 17.8667 26.9863 17.6877C26.9863 17.275 26.7708 16.7272 26.7708 15.836C27.2456 15.7009 28.1039 15.5329 28.1039 14.8792C28.1039 14.4884 27.2273 12.3336 26.6831 10.9165C26.5991 10.6937 26.4165 10.5184 26.1828 10.5184C25.8139 10.5148 25.6605 11.0115 24.6525 11.0115C22.7972 11.0151 23.4801 9.24743 17.8813 9.609C17.1947 9.65282 17.0011 9.8537 16.9171 10.5075C16.7126 12.0998 16.7527 16.4058 17.6877 18.9916C16.508 17.7096 16.1282 15.2663 15.9493 13.3708C15.5731 16.8842 15.3686 21.6979 10.9201 23.2902C9.00638 23.9476 6.88809 23.8198 4.91589 23.5897C6.11017 23.608 7.30444 23.5714 8.48411 23.4107C9.25838 23.3085 10.0217 23.1332 10.7375 22.8154C15.8981 20.6424 14.2875 13.7068 15.5329 10.3102C13.2503 12.6075 12.801 18.8236 7.18392 19.1303C5.69382 19.218 4.21466 19.1011 2.74647 18.8783C4.21101 18.9185 5.69381 18.9003 7.14009 18.6994C12.1802 18.0164 12.2569 12.5819 14.6272 9.84274C13.6593 10.0509 12.7134 10.3577 11.8478 10.8325C10.5695 11.5008 9.65648 12.5563 8.59003 13.5497C7.21314 14.8353 5.68286 15.2225 3.83118 15.1056C2.55655 15.0435 1.28193 14.9412 0.0109562 14.7842C0.0620873 14.7842 2.19499 14.7258 2.19499 14.7258C3.59013 14.6564 5.0985 14.744 6.39139 14.167C7.36653 13.7506 8.07872 12.9727 8.78359 12.1984C10.0984 10.7047 11.5593 9.67109 13.484 9.1123C14.9193 8.67403 19.5942 8.19559 22.4977 8.30516C24.2106 8.3709 27.724 8.79821 29.9811 9.70396C29.9446 9.69665 29.9117 9.68569 29.8752 9.67839C28.9219 9.48482 27.8007 9.59804 26.8877 9.95596C27.8372 9.98153 28.8708 10.0436 29.678 10.2481C30.3901 10.4271 31.778 10.7302 31.9642 11.5082C31.9716 11.457 32.0044 11.2598 32.0044 10.785C32.0044 7.77193 29.4953 4.96702 26.8548 4.96702Z" fill="black"/>
<path d="M171.055 3.25412L170.95 3.203L170.975 3.14456L171.275 3.27604L171.249 3.34178L171.136 3.29065L170.99 3.6157L170.913 3.57918L171.055 3.25412Z" fill="black"/>
<path d="M171.333 3.30526L171.457 3.3637L171.402 3.69605L171.643 3.45135L171.76 3.51344L171.578 3.89326L171.501 3.85674L171.658 3.54265L171.399 3.80561L171.326 3.76909L171.377 3.40387L171.22 3.71796L171.147 3.68144L171.333 3.30526Z" fill="black"/>
<path d="M172.235 6.60322C173.689 8.0568 174.646 10.0144 174.803 12.2203C175.146 17.0924 171.446 21.318 166.549 21.6577C164.244 21.8147 162.082 21.0879 160.409 19.7695L160.398 19.7804C162.14 21.3947 164.525 22.3151 167.089 22.1361C171.987 21.7928 175.683 17.5672 175.343 12.6951C175.168 10.2335 173.995 8.07871 172.246 6.59226L172.239 6.60322H172.235Z" fill="black"/>
<path d="M157.257 17.1873C157.308 17.4941 157.316 17.6037 157.283 17.7279C157.243 17.8922 157.14 18.0091 156.972 18.0748C156.596 18.2246 156.231 18.0018 156.03 17.4978C155.811 16.9463 155.924 16.5409 156.352 16.351L156.472 16.6432C156.191 16.8002 156.129 17.0376 156.271 17.3992C156.403 17.7315 156.615 17.8776 156.837 17.7863C157.016 17.7206 157.049 17.5635 156.972 17.1654L156.943 17.0084C156.87 16.614 156.856 16.446 156.907 16.2779C156.954 16.0917 157.06 15.9639 157.228 15.9018C157.634 15.7411 158.013 15.9858 158.24 16.5519C158.484 17.1618 158.353 17.6183 157.875 17.8155L157.754 17.5161C158.086 17.3736 158.17 17.0668 157.995 16.6249C157.849 16.2633 157.615 16.1026 157.378 16.2013C157.181 16.2816 157.133 16.4606 157.206 16.8696L157.261 17.191H157.257V17.1873Z" fill="black"/>
<path d="M156.461 14.1012L155.289 12.8485L155.278 12.4175L156.224 13.4511L157.571 12.3226L157.579 12.7426L156.439 13.6812L156.808 14.0866L157.608 14.072L157.615 14.3971L155.325 14.4518L155.318 14.1195L156.461 14.1012Z" fill="black"/>
<path d="M156.169 8.94429L156.289 8.58637L157.239 9.92308L158.123 10.2299L158.013 10.5403L157.126 10.2299L155.541 10.7047L155.68 10.3321L156.947 9.98518L156.169 8.94429Z" fill="black"/>
<path d="M158.788 5.73764L158.306 6.3293L159.752 7.50532L159.405 7.92532L157.959 6.7493L157.473 7.33366L157.144 7.06704L158.463 5.47468L158.788 5.73764Z" fill="black"/>
<path d="M161.885 3.57552L160.731 4.25118L160.972 4.67119L162.038 4.05032L162.235 4.38997L161.176 5.0072L161.457 5.48928L162.641 4.80267L162.853 5.16789L161.198 6.12842L160.04 4.16353L161.673 3.21395L161.885 3.57552Z" fill="black"/>
<path d="M165.015 3.28699C164.887 3.07881 164.836 2.98386 164.766 2.82316C164.744 2.98386 164.726 3.10804 164.668 3.34178L164.573 3.78004L165.241 3.67413L165.015 3.29065V3.28699ZM166.329 4.46301L165.727 4.50319L165.431 4.01014L164.503 4.15622L164.376 4.71867L163.802 4.86475L164.408 2.37394L164.974 2.28263L166.329 4.46301Z" fill="black"/>
<path d="M167.911 4.58718L167.4 4.51049L167.977 2.27533L168.747 2.42873L168.879 4.22927L169.879 2.7209L170.606 2.96925L170.011 5.18981L169.529 5.01084L170.044 3.22125L168.937 4.83189L168.517 4.72232L168.345 2.79029L167.911 4.58718Z" fill="black"/>
<path d="M169.96 12.5454C170.621 12.0998 171.172 11.8661 171.512 11.877C171.716 11.888 171.958 11.9464 171.958 12.1948C171.958 12.4431 171.716 12.6659 171.234 12.8339C170.814 12.9836 170.172 13.0202 169.467 12.9435C169.66 12.7718 169.821 12.6403 169.96 12.5454ZM160.654 13.3562C160.241 13.327 160.04 13.1626 160.04 12.8485C160.04 12.8083 160.07 11.8113 162.367 11.6981C162.63 11.6835 162.926 11.6761 163.371 11.7236C163.353 11.7236 163.115 11.9464 163.115 11.9464L162.969 12.0742C162.414 12.5746 161.487 13.411 160.658 13.3562H160.654ZM165.628 9.58343C165.347 9.82813 164.799 10.3504 164.266 10.8581L163.663 11.4351C163.17 11.3438 162.685 11.3036 162.184 11.3036C161.067 11.3036 160.044 11.6068 159.58 12.0815C159.401 12.2605 159.314 12.4577 159.317 12.6659C159.324 13.2028 159.945 13.473 160.135 13.5424C161.125 13.9077 161.958 13.8054 162.834 13.1955C163.32 12.8595 163.897 12.3189 164.354 11.888C164.704 11.972 165.106 12.0742 165.537 12.2021L165.935 12.3153C165.416 12.8193 164.89 13.3452 164.401 13.7762L164.365 13.809C163.682 14.408 163.192 14.839 162.476 14.996C161.976 15.1056 161.622 14.9997 161.505 14.9303C161.494 14.9303 161.476 14.9558 161.476 14.9558C161.888 15.2919 162.279 15.4818 162.951 15.4233C163.587 15.3685 164.328 14.9705 165.084 14.2692L166.103 13.2722L166.815 12.5673L168.258 12.9873L168.287 12.9983C168.272 12.9983 167.392 13.8602 167.392 13.8602L166.625 14.6162C165.84 15.3759 165.413 15.7703 164.953 16.0953C164.189 16.6286 163.543 16.9098 162.969 16.9463C162.674 16.9646 162.246 16.9463 161.888 16.7381C161.874 16.7345 161.852 16.7564 161.852 16.7564C162.239 17.0887 162.714 17.4795 163.536 17.4576C164.463 17.4321 165.278 16.9901 166.556 15.8214C167.14 15.2882 167.717 14.6965 168.229 14.1706L169.178 13.2137C169.803 13.3525 170.358 13.411 170.979 13.3964C171.881 13.3781 172.644 12.9508 172.659 12.4614C172.662 12.0998 172.367 11.9062 172.188 11.793C172.038 11.6944 171.636 11.4753 171.081 11.4753C170.405 11.4753 169.704 11.7711 168.988 12.3518L168.517 12.7682L168.342 12.7207L167.02 12.3482C167.411 11.9902 167.743 11.6798 168.039 11.4168C168.762 10.7814 169.558 10.5184 170.026 10.4855C170.365 10.4673 170.96 10.4928 171.205 10.6681C171.216 10.6645 171.231 10.6389 171.231 10.6389C170.581 10.0874 170.022 10.0144 169.554 10.0144C169.087 10.0144 168.364 10.1605 167.469 10.8508C167.1 11.132 166.625 11.6031 166.125 12.1071C166.125 12.0998 165.46 11.9026 165.46 11.9026L165.3 11.8515L164.598 11.6433L164.996 11.2708C165.471 10.8069 165.917 10.3723 166.264 10.0801C167.531 9.02098 168.327 8.88585 168.882 8.8822C169.489 8.8822 169.971 9.00273 170.314 9.25108C170.325 9.25108 170.34 9.22551 170.34 9.22551C169.631 8.59002 169.116 8.38185 168.236 8.37455C167.462 8.37089 166.534 8.80185 165.628 9.58708V9.58343Z" fill="black"/>
</svg>