<?xml version="1.0" encoding="utf-8"?>
<!-- Generator: Adobe Illustrator 28.1.0, SVG Export Plug-In . SVG Version: 6.00 Build 0)  -->
<svg version="1.1" id="Capa_1" xmlns="http://www.w3.org/2000/svg" xmlns:xlink="http://www.w3.org/1999/xlink" x="0px" y="0px"
	 viewBox="0 0 407.66 307.85" style="enable-background:new 0 0 407.66 307.85;" xml:space="preserve">
<style type="text/css">
	.st0{fill:#4BAD3A;}
</style>
<g>
	<path class="st0" d="M287.2,24.33c0,0,110.44,47.2,106.22,129.6s-65.22,115.4-131.22,127.4c0,0-40-0.36-59-8.18
		s-62.89-22.82-82.44,8.18c0,0,47.44,26,128.44,17s154.77-70.8,155.39-144.4c0.61-73.6-84.39-136.6-103.39-145.6
		C301.2,8.33,302.2,4.33,287.2,24.33z"/>
	<path class="st0" d="M121.15,283.89c0,0-110.44-47.2-106.22-129.6s65.22-115.4,131.22-127.4c0,0,40,0.36,59,8.18
		s62.89,22.82,82.44-8.18c0,0-47.44-26-128.44-17S4.38,80.7,3.76,154.3s84.39,136.6,103.39,145.6
		C107.15,299.89,106.15,303.89,121.15,283.89z"/>
	<path class="st0" d="M47.2,103.33c-2-3,1-3,1-3s10-3,16.62-5s5.38,0,5.38,0v32c6-10,16-9,16-9s21,0,21.15,27.1
		c0.15,31.1-18.15,33.9-32.15,34.9s-17-2-21-2s-4-2.1-4-2.1v-65.9C50.2,110.33,49.2,106.33,47.2,103.33z M69.2,136.33v30.22
		c0,0,1,5.78,7,5.78s11-5,10-22s-0.87-18.96-8.44-19.48S69.2,136.33,69.2,136.33z"/>
	<path class="st0" d="M146.2,103.33c-2-3,1-3,1-3s10-3,16.62-5c6.62-2,5.38,0,5.38,0v32c6-10,16-9,16-9s21,0,21.15,27.1
		c0.15,31.1-18.15,33.9-32.15,34.9s-17-2-21-2s-4-2.1-4-2.1v-65.9C149.2,110.33,148.2,106.33,146.2,103.33z M168.2,136.33v30.22
		c0,0,1,5.78,7,5.78s11-5,10-22s-0.87-18.96-8.44-19.48S168.2,136.33,168.2,136.33z"/>
	<path class="st0" d="M137.3,179.33H117.2v-45c0,0-1-4-3-7c-2-3,1-3,1-3s10-3,16.62-5c6.62-2,5.38,0,5.38,0v32L137.3,179.33z"/>
	<circle class="st0" cx="125.7" cy="99.83" r="12.5"/>
	<path class="st0" d="M236.3,179.33H216.2v-45c0,0-1-4-3-7c-2-3,1-3,1-3s10-3,16.62-5c6.62-2,5.38,0,5.38,0v32L236.3,179.33z"/>
	<circle class="st0" cx="224.7" cy="99.83" r="12.5"/>
	<path class="st0" d="M293.2,122.33c0,0,0-10-1-12s-1-3,1-3s9.65-2,9.65-2c10.65-4,8.41,0,8.41,0c1.05,10-10.05,17-12.05,18
		s-1,3-1,3c7,5,7,15,7,15c1,21-20,23-27.35,23.54c-7.35,0.54-5.65-0.54-12.65-1.54s-7,4-7,4c0,8,11,5,26,5s26-2,27,14s-12,25-32,26
		s-25-7-26-12s5-8,10-9s-1-3-1-3c-7,0-19-1-19-14s9-13,12-14c3-1,0-2,0-2c-8-6-8-17-8-17c1-23,29-24,29-24
		C287.2,117.33,293.2,122.33,293.2,122.33z M267.2,140.33c0,0-2,15,9,15s9.12-15,9.12-15s0.98-12.95-9.07-13.47
		C266.2,126.33,267.2,140.33,267.2,140.33z M279.2,200.33c5,0,14-1,14-6s-3.24-5-3.24-5H268.2
		C268.2,198.33,274.2,200.33,279.2,200.33z"/>
	<path class="st0" d="M374.5,148.88c0.3,27.56-22.3,31.44-30.3,31.32c-8-0.12-34,0.12-32.75-32.35s32.75-30.53,32.75-30.53
		C353.2,117.33,374.2,121.33,374.5,148.88z M343.2,127.33c-8,0-11,9.85-11,22c0,12.15,3,22,11,22s11-9.85,11-22
		C354.2,137.18,351.2,127.33,343.2,127.33z"/>
	<path class="st0" d="M112.9,190.33l0.31,12h10l0.13-12h7.35v36H106.2l-1-36H112.9z M124.2,208.33h-11v11h11V208.33z"/>
	<rect x="137.2" y="190.33" class="st0" width="8" height="44"/>
	<path class="st0" d="M159.9,190.33l0.31,12h10l0.13-12h7.35v36H153.2l-1-36H159.9z M171.2,208.33h-11v11h11V208.33z"/>
	<rect x="183.2" y="190.33" class="st0" width="8" height="44"/>
	<rect x="212.2" y="207.33" class="st0" width="7" height="20"/>
	<rect x="197.2" y="224.33" class="st0" width="43" height="7"/>
	<path class="st0" d="M227.33,197.33H199.2v-7h36v7c0,0-1,18-2,21h-7.93C225.27,218.33,228.46,202.33,227.33,197.33z"/>
</g>
</svg>
