<?xml version="1.0" encoding="UTF-8"?>
<svg id="Capa_1" xmlns="http://www.w3.org/2000/svg" version="1.1" viewBox="0 0 600 600">
  <!-- Generator: Adobe Illustrator 29.8.2, SVG Export Plug-In . SVG Version: 2.1.1 Build 3)  -->
  <defs>
    <style>
      .st0 {
        fill: #e60012;
      }

      .st1 {
        fill: #e60212;
      }

      .st2 {
        fill: #e50211;
      }

      .st3 {
        fill: #e50111;
      }

      .st4 {
        fill: #e60211;
      }

      .st5 {
        fill: #e60111;
      }

      .st6 {
        fill: #e50313;
      }
    </style>
  </defs>
  <path class="st0" d="M151.29,238.41c2.36.55,4.31.9,6.18,1.47,4.78,1.46,6.94,4.86,6.89,9.75-.06,5.6-2.27,10.53-5.89,14.5-14.02,15.37-30.94,24.44-52.39,22.69-17.64-1.43-25.53-13.41-20.14-30.34,3-9.43,8.71-17.11,15.68-23.94,14.01-13.76,30.4-22.98,49.98-26.04,2.97-.47,5.94-.46,8.92.17,9.04,1.92,12.26,8.41,8.15,16.74-2.69,5.46-7.3,8.92-12.55,11.7-1.55.82-3.45,1.16-4.84,3.3ZM128.65,243.85c7.82-3.5,12.83-8.63,15.78-15.67,2.18-5.19,1.12-10.16-2.43-12.66-3.45-2.43-7.77-1.61-12.13,2.36-5.37,4.89-9.22,10.89-12.42,17.33-5.96,12-8.44,24.81-8.33,38.11.06,6.5,4.76,11.01,10.02,9.42,9.58-2.91,14.92-10.07,17.51-19.45,2.23-8.1.2-14.7-8-19.44Z"/>
  <path class="st3" d="M304.11,275.34c5.94,3.7,6.82,9.21,2.62,15.24-6.33,9.09-26.07,12.54-35.2,6.13-1.41-.99-2.41-2.23-2.2-4.16.44-4.15,5.4-8.81,9.63-8.8,2.31,0,4.88.12,2.69,3.59-1.68,2.67-.22,3.93,2.07,4.92,5.15,2.24,13.2-1.07,15.14-6.32,1.28-3.49.31-5.86-3.64-6.49-.49-.08-.99-.12-1.49-.14-12.72-.52-17.04-6.4-13.78-18.73,2.27-8.59,7.32-15.18,14.61-20.12,4.76-3.22,10-4.53,15.65-3.43,3.63.71,7.25.88,10.92.8,1.51-.03,3.7-.76,3.86,1.82.13,2.15-.81,4.39-3.16,4.33-4-.11-3.78,1.67-3.53,4.81.74,9.11-3.43,16.38-9.66,22.63-1.39,1.4-2.98,2.6-4.52,3.94ZM289.78,266.4c.22,2.55-.75,5.84,2.44,6.95,2.9,1.01,4.88-1.46,6.63-3.43,5.25-5.92,8.02-12.97,8.78-20.76.23-2.4.23-5.38-2.35-6.65-2.77-1.36-4.75.91-6.36,2.73-5.31,6.03-8.36,13.1-9.15,21.16Z"/>
  <path class="st2" d="M261.89,275.24c6.07,4.12,6.76,9.56,2.2,15.71-6.56,8.84-25.7,12.02-34.87,5.79-1.84-1.25-2.67-2.85-2.05-5.12,1.16-4.22,5.9-8.07,9.88-7.91,2.39.09,4.23.75,2.37,3.53-2.06,3.08-.09,4.16,2.27,5.1,5.16,2.05,12.65-1.08,14.77-6.22,1.4-3.41.65-5.93-3.36-6.57-1.44-.23-2.96,0-4.44-.02-7.4-.06-11.19-3.94-11.79-11.34-1.28-15.75,16.65-36.65,34.27-30.67,2.25.76,4.96.13,7.45.26,1.66.09,4.17-.78,4.11,2.11-.05,2.25-1.14,4.21-3.92,4.26-.98.02-1.96,0-3.23,0,2.41,13.59-3.6,23.25-13.66,31.07ZM265.38,249.46c-.18-2.76.29-5.9-2.75-7.07-2.79-1.07-4.67,1.28-6.27,3.13-5.27,6.09-8.23,13.24-9.01,21.24-.24,2.48-.41,5.41,2.38,6.56,2.75,1.13,4.67-1.12,6.34-2.92,5.53-5.93,8.31-13.11,9.3-20.94Z"/>
  <path class="st3" d="M210.27,246.97c3.16-2.98,5.67-6.38,9.43-8.33,4.11-2.13,8.32-3.01,12.12.22,3.6,3.05,2.84,7.21,1.58,11.09-1.96,6-4.15,11.93-6.25,17.88-.69,1.96-1.15,3.83.91,5.36,2.59,1.93.97,3.34-.71,4.63-3.1,2.36-6.68,3.67-10.44,4.54-1.43.33-3,1.19-4.22-.16-1.17-1.29-.41-2.82.08-4.23,2.33-6.76,4.71-13.5,6.95-20.29.93-2.83,1.83-5.73,2.22-8.66.51-3.78-1.76-5.17-5.22-3.47-2.83,1.39-4.36,4.02-6.03,6.5-5.28,7.83-7.79,16.86-11.02,25.57-1.06,2.85-9.32,5.2-11.44,3.22-1.24-1.16-.15-2.49.24-3.65,2.73-8.03,5.57-16.01,8.27-24.05.82-2.44,2.12-4.98-1.02-7.09-1.84-1.23-.6-2.54.63-3.6,3.65-3.15,8.11-4.47,12.67-5.48,2.45-.54,3.34.65,2.99,3.06-.33,2.28-2.09,4.18-1.74,6.93Z"/>
  <path class="st5" d="M377.04,271.66c-3.67,4.68-6.6,7.99-10.87,9.88-7.06,3.13-13.17-.22-14.1-7.93-1.57-13.05,9.67-31.55,22.17-36.01,4.45-1.59,9.23-2.35,12.66,2.26,1.12,1.49,1.83.85,2.8.16.95-.67,1.94-1.29,2.87-1.98,1.26-.94,2.74-1.77,4.12-.9,1.67,1.06.54,2.74.08,4.05-2.66,7.68-5.39,15.32-8.12,22.98-1.29,3.61-3.2,7.16,1.8,9.8,1.89,1,.08,2.32-.8,3.08-2.94,2.53-6.49,3.89-10.12,5.12-3.4,1.15-4.81.19-4.02-3.45.42-1.93.83-3.85,1.53-7.08ZM363.46,269.45c.24,2.3-.03,4.54,2.09,5.63,2.16,1.12,4.02-.12,5.32-1.61,6.26-7.12,10.44-15.33,12.12-24.7.38-2.12.37-4.55-2.08-5.62-2.32-1.01-4.21.31-5.8,1.87-6.96,6.8-10.39,15.27-11.65,24.43Z"/>
  <path class="st5" d="M411.12,282.32c-8.65.67-13.69-3.27-14.91-10.87-2.71-16.93,17.13-37.03,34.13-34.59,6.34.91,9.77,6.36,7.62,12.42-1.65,4.65-5.09,7.74-9.56,9.6-5.06,2.1-10.26,3.81-15.74,4.52-4.76.62-6.55,4.56-3.82,8.73,2.24,3.41,5.46,4.87,9.47,3.31,3.24-1.27,6.44-2.69,9.2-4.9,1.26-1.01,2.64-2.91,4.15-1.18,1.38,1.57-.52,3.04-1.56,4.19-5.31,5.85-12.03,8.65-18.97,8.8ZM409.38,258.25c7.62-.16,13.38-2.34,17.46-7.95,1.59-2.18,2.68-4.98.18-7.18-2.35-2.08-5.05-1.13-7.25.61-4.63,3.66-7.43,8.63-10.39,14.52Z"/>
  <path class="st4" d="M343.35,244.54c3.52-2.07,4.55-5.46,7.51-6.81,2.51-1.14,5.18-2.4,7.49-.48,2.03,1.69.92,4.36.32,6.54-.48,1.75-1.19,3.48-2.1,5.05-2.32,4-4.66,4.12-7.16.15-1.89-3-3.26-1.36-4.49.21-3.39,4.35-5.73,9.32-7.71,14.43-1.8,4.63-3.36,9.36-5.11,14.01-1.08,2.85-9.07,5.1-11.43,3.25-1.22-.96-.32-2.04.04-3.08,2.86-8.31,5.65-16.64,8.59-24.93.88-2.48,1.64-4.71-.93-6.69-2.12-1.64-.57-2.89.7-3.96,3.54-2.97,7.83-4.36,12.24-5.18,3.43-.64,3.81.62,2.03,7.48Z"/>
  <path class="st1" d="M189.7,240.22c-.16.51-.55,1.95-1.03,3.37-2.62,7.71-5.26,15.4-7.88,23.11-.87,2.55-1.79,5.07,1.05,7.17,1.53,1.13.72,2.32-.38,3.28-3.88,3.42-8.58,5.21-13.57,5.66-3.79.34-2.5-2.66-1.88-4.57,2.69-8.21,5.49-16.38,8.3-24.55.93-2.7,2.19-5.25-.81-7.64-1.71-1.36-.4-2.71.76-3.69,3.67-3.09,8.11-4.45,12.69-5.38,1.68-.34,3.07.08,2.74,3.24Z"/>
  <path class="st6" d="M195.93,220.47c-.01,5.34-5.17,10.56-9.62,10.53-3.09-.02-4.45-1.71-4.5-4.67-.08-4.73,4.82-9.65,9.49-9.61,3.07.03,4.49,1.61,4.63,3.74Z"/>
</svg>