<?xml version="1.0" encoding="UTF-8"?>
<svg id="Capa_1" xmlns="http://www.w3.org/2000/svg" version="1.1" viewBox="0 0 600 600">
  <!-- Generator: Adobe Illustrator 29.8.2, SVG Export Plug-In . SVG Version: 2.1.1 Build 3)  -->
  <defs>
    <style>
      .st0 {
        fill: #9f1858;
      }

      .st1 {
        fill: #ee7e1e;
      }
    </style>
  </defs>
  <path class="st0" d="M381.89,328.02c2.94-8.67,5.69-17.17,7.84-25.85.85-3.45,1.51-6.94,2.09-10.45.62-3.7-.14-7.21-1.11-10.74-2.09-7.58-4.18-15.16-7.67-22.25-.37-.75-.78-1.48-1.22-2.19-.44-.7-.94-1.37-1.42-2.05.24-.36.59-.2.88-.2,8.72-.01,17.44,0,26.16-.02.65,0,1.09.01,1.23.86,1.48,8.98,3.35,17.89,5.42,26.75,5.01,21.46,10.94,42.66,17.83,63.59.1.3.16.6.27,1h-6.29c-5.52,0-11.04-.02-16.56.02-.87,0-1.21-.23-1.44-1.1-3.39-12.89-6.82-25.77-10.24-38.65-.1-.38-.22-.77-.34-1.19-.57.26-.51.81-.63,1.22-3.94,12.81-7.87,25.63-11.75,38.46-.3.98-.7,1.27-1.71,1.26-6.24-.05-12.48-.05-18.72,0-.93,0-1.27-.25-1.46-1.18-4.89-23.54-11.02-46.75-18.21-69.69-1.95-6.22-4.33-12.27-7.98-17.74-.79-1.19-1.71-2.27-2.66-3.34.37-.41.76-.26,1.09-.26,8.08-.01,16.16,0,24.24,0,2.27,0,3.11.64,3.8,2.86,3.81,12.36,7.04,24.88,10.28,37.39,2.81,10.85,5.51,21.74,8,32.67.04.19.13.37.29.82Z"/>
  <path class="st0" d="M240.31,346.45c-3.59.34-7.01.45-10.44.49-3.72.04-7.44.1-11.14-.23-5.29-.47-9.3-3.16-12.34-7.39-3.65-5.07-6.52-10.61-9.47-16.09-4.44-8.26-8.65-16.64-12.67-25.11-.15-.32-.28-.65-.44-1.01,2.45-.45,4.83-.96,7.14-1.74,7.48-2.5,11.6-8.11,11.76-15.99.06-2.94-.22-5.83-1.22-8.61-2.21-6.15-6.73-9.28-13.11-9.96-2.6-.28-5.18-.3-7.75.24-1.68.35-1.84.5-1.84,2.17-.02,18.76-.03,37.51-.04,56.27,0,5.28-.06,10.55.45,15.81.36,3.74.85,7.45,2.19,11.02-.29.27-.62.16-.91.16-8.88,0-17.76,0-26.64.02-.9,0-1.22-.06-.79-1.08,1.56-3.7,1.93-7.65,2.17-11.6.88-14.65.79-29.32.68-43.99-.05-6.43-.22-12.86-.45-19.29-.14-3.91-.61-7.8-1.63-11.6-.43-1.58-1.01-3.09-2.03-4.58.51-.03.89-.06,1.26-.07,16.68,0,33.35-.01,50.03,0,5.41,0,10.71.7,15.49,3.44,6.96,3.99,9.74,10.26,9.19,18.03-.72,10.28-6.7,16.55-16,20.07-1.3.49-2.63.95-3.98,1.29-.91.23-.83.55-.43,1.2,3,4.91,6.1,9.75,9.27,14.55,6.94,10.5,13.93,20.97,21.6,30.96.65.84,1.32,1.67,2.07,2.63Z"/>
  <path class="st0" d="M331.4,299.44c.03,8.85-1.3,17.44-5.19,25.47-5.33,11-13.99,18.2-25.61,21.76-11.29,3.46-22.66,3.35-33.8-.56-11.07-3.88-19.12-11.37-23.12-22.44-5.3-14.66-5.76-29.65-.31-44.35,5.8-15.64,17.51-24.45,33.93-26.92,8.28-1.25,16.56-.9,24.77.92,12.72,2.81,21,10.57,25.49,22.61,2.59,6.96,3.57,14.22,3.84,21.6.02.64,0,1.28,0,1.92ZM265.38,296.82c.07,9.31,1.07,18.26,3.4,27.03,1.35,5.08,3.14,9.97,6.44,14.18,6.3,8.05,16.55,8.01,22.75-.12,2.56-3.36,4.13-7.19,5.12-11.26,2.21-9.11,2.88-18.37,2.65-27.71-.2-8.22-1.21-16.33-3.64-24.21-1.62-5.23-3.83-10.16-7.87-14.06-5.72-5.52-14.6-5.24-19.9.65-2.62,2.91-4.16,6.41-5.33,10.09-2.66,8.34-3.54,16.94-3.61,25.4Z"/>
  <path class="st0" d="M481.29,277.27c0,5.04-.01,10.07,0,15.11.02,4.8.07,9.59.1,14.39.05,7.51-.04,15.03.49,22.53.38,5.48,1.46,10.84,2.96,16.11.14.5.58,1.08-.51,1.07-6.04-.02-12.07-.01-18.14-.01-.02-.16-.08-.27-.05-.36,2.78-9.26,3.66-18.79,4.01-28.39.38-10.07.52-20.14.37-30.21-.1-6.46.09-12.95-.87-19.38-.7-4.73-1.72-9.35-4.45-13.4-.06-.09-.05-.22-.09-.45.43,0,.82,0,1.2,0,9.04,0,18.08.01,27.12-.02.87,0,1.34.26,1.78,1.02,11.82,20.15,23.75,40.23,36.19,60.01.3.47.6.93.9,1.4.41-.18.24-.5.24-.74-.02-10.28.04-20.56-.1-30.83-.08-5.43.02-10.87-.62-16.28-.54-4.57-1.35-9.08-2.91-13.43-.32-.88-.27-1.15.77-1.14,5.36.05,10.72.04,16.08,0,.94,0,1.03.26.81,1.1-2.08,7.72-2.86,15.61-3.07,23.59-.38,14.75-.45,29.5-.37,44.25.04,7.39.23,14.78.41,22.18.02.89-.14,1.14-1.07,1.13-6.28-.05-12.56-.04-18.84,0-.78,0-1.2-.22-1.6-.9-8.32-14.15-16.65-28.28-25.01-42.41-4.94-8.35-9.92-16.68-14.88-25.02-.2-.33-.4-.65-.6-.98-.09.03-.17.05-.26.08Z"/>
  <path class="st0" d="M141.91,336.27c-.87,2.05-1.74,4.1-2.62,6.13-.19.43-.65.57-1.04.77-4.9,2.58-10.18,3.92-15.6,4.81-11.78,1.94-23.41,1.38-34.82-2.21-20.75-6.53-33.23-20.78-38.11-41.72-3.21-13.77-2.07-27.32,3.86-40.27,6.4-13.99,17.47-22.03,32.38-25.07,3.53-.72,7.11-1.04,10.71-1.08.35,0,.89-.18.91.46.01.44.19.92-.47,1.19-5.7,2.37-8.95,7.02-11.36,12.4-2.46,5.49-3.63,11.32-4.15,17.27-.92,10.58.01,20.99,3.35,31.11,3.78,11.46,9.94,21.31,19.9,28.48,6.31,4.54,13.47,6.87,21.04,8.09,5.25.85,10.5.94,15.69-.47.06-.02.14.04.32.11Z"/>
  <path class="st1" d="M138.64,258.16c0,6.4,0,12.8-.02,19.2,0,.39.37,1.11-.39,1.16-.71.05-1.5.36-1.99-.73-2.77-6.12-6.03-11.99-9.71-17.61-3.95-6.04-8.26-11.78-13.61-16.68-1.74-1.6-3.6-3.05-5.64-4.26-.5-.29-.86-.59-.72-1.2.17-.73.78-.41,1.19-.41,9.88-.02,19.76,0,29.64-.04.98,0,1.28.23,1.27,1.25-.05,6.44-.02,12.88-.02,19.32Z"/>
  <path class="st0" d="M426.21,254.35h29.7c-.92,2.17-1.84,4.28-2.72,6.41-5.24,12.59-10.41,25.22-14.71,38.17-.14.44-.22.83-.85.74-.71-.1-.6-.59-.63-1.07-.8-12.49-2.82-24.74-6.93-36.6-.47-1.35-1.07-2.66-1.64-3.98-.54-1.28-1.35-2.42-2.22-3.67Z"/>
</svg>