<?xml version="1.0" encoding="UTF-8"?>
<svg id="Capa_1" xmlns="http://www.w3.org/2000/svg" version="1.1" viewBox="0 0 1200 1200">
  <!-- Generator: Adobe Illustrator 29.8.2, SVG Export Plug-In . SVG Version: 2.1.1 Build 3)  -->
  <defs>
    <style>
      .st0 {
        fill: #fef102;
      }

      .st1 {
        fill: #9d9b9c;
      }

      .st2 {
        fill: #ef3d14;
      }

      .st3 {
        fill: #e638a4;
      }

      .st4 {
        fill: #f58a0a;
      }

      .st5 {
        fill: #34b55d;
      }
    </style>
  </defs>
  <path d="M454.61,637.46c8,0,15.79-.03,23.57.01,2.73.01,3.27.63,3.28,3.55.03,8.97.03,17.94,0,26.9,0,2.86-.58,3.27-3.32,3.56-3.84.4-7.62,1.23-11.55,1.02-3.94-.21-7.91-.05-11.99-.05v-35ZM460.56,666.29h14.97c-.2-7.72.18-15.29-.21-22.66h-14.76v22.66Z"/>
  <path d="M567.65,666.52c7.31-.47,14.49.89,21.7-1.21v6.15c-4.53-.71-8.84,1.18-13.4,1.03-4.66-.15-9.32-.03-14.23-.03v-34.85h22.36c.09.16.36.42.38.7.34,5.35-.78,5.29-5.21,5.17-3.81-.1-7.62-.02-11.6-.02v23.06Z"/>
  <path d="M417.07,637.46c.24.39.39.52.39.65.13,5.21.01,5.34-5.01,5.35-2.5,0-4.99,0-7.73,0v22.88h16.29c1.01,1.7.08,3.31.58,4.78-7.8,1.09-15.25,1.81-23.1,1.15v-20.32c0-3.83-.03-7.66.01-11.49.03-2.16.77-2.97,2.86-2.99,5.3-.05,10.59-.02,15.73-.02Z"/>
  <path d="M598.48,630.63v20.66h9.64c.62,1.69.3,3.28.29,5.03h-9.81v25.98h-5.9v-51.67h5.78Z"/>
  <path d="M430.32,680.36h-5.83v-23.88h-7.84v-4.86h7.67v-18.77c2.01-.85,3.96-.07,6-.54v48.06Z"/>
  <path d="M506.47,658.53c0-1.28,0-2.09,0-2.91.04-3.01.08-2.92,3.19-4.18,6.08-2.46,10.84-6.53,14.37-12.05.17-.26.42-.55.41-.82-.17-3.26,2.03-3.2,4.28-3.11.48.02.95.07,1.54.11,3.21,9.69,10.2,15,20.06,17.13v5.68c-4.73-.08-8.95-2-12.79-4.48-3.99-2.58-7.03-6.29-9.62-10.92-4.96,8.27-11.95,13.31-21.45,15.55Z"/>
  <path d="M530.3,670.46c6.01,0,11.49-.03,16.97.01,2.58.02,3.57,1.19,3.2,3.65-.21,1.4-.92,2.38-2.53,2.34-.67-.02-1.33,0-2,0h-39.22v-5.91h18.71v-11.99h4.88v11.9Z"/>
  <path d="M436.62,630.57c.66-.04,1.14-.11,1.61-.1,4.06.05,4.23.19,4.23,4.12.02,15.8,0,31.59,0,47.63h-5.85v-51.65Z"/>
  <path d="M495.47,682.37h-5.83v-51.67c.42-.1.73-.23,1.03-.23,4.77-.03,4.79-.02,4.8,4.55,0,15.63,0,31.26,0,47.35Z"/>
  <g>
    <path d="M192.56,542.82c5.15-.78,11.28-1.36,17.99-1.36,12.16,0,20.81,2.82,26.55,8.17,5.84,5.35,9.24,12.93,9.24,23.54s-3.31,19.45-9.43,25.48c-6.13,6.13-16.24,9.43-28.98,9.43-6.03,0-11.09-.29-15.37-.78v-64.48ZM201.02,600.79c2.14.39,5.25.49,8.56.49,18.09,0,27.91-10.11,27.91-27.82.1-15.46-8.66-25.29-26.55-25.29-4.38,0-7.68.39-9.92.88v51.74Z"/>
    <path d="M262.19,585.52c.19,11.57,7.59,16.34,16.14,16.34,6.13,0,9.82-1.07,13.03-2.43l1.46,6.13c-3.02,1.36-8.17,2.92-15.66,2.92-14.49,0-23.15-9.53-23.15-23.73s8.36-25.38,22.08-25.38c15.37,0,19.45,13.52,19.45,22.17,0,1.75-.19,3.11-.29,3.99h-33.07ZM287.28,579.39c.1-5.45-2.24-13.91-11.87-13.91-8.66,0-12.45,7.97-13.13,13.91h24.99Z"/>
    <path d="M306.14,573.17c0-4.86-.1-8.85-.39-12.74h7.49l.39,7.59h.29c2.63-4.47,7-8.66,14.78-8.66,6.42,0,11.28,3.89,13.32,9.43h.19c1.46-2.63,3.31-4.67,5.25-6.13,2.82-2.14,5.93-3.31,10.41-3.31,6.22,0,15.46,4.08,15.46,20.42v27.72h-8.36v-26.65c0-9.05-3.31-14.49-10.21-14.49-4.86,0-8.66,3.6-10.11,7.78-.39,1.17-.68,2.72-.68,4.28v29.08h-8.36v-28.2c0-7.49-3.31-12.93-9.82-12.93-5.35,0-9.24,4.28-10.6,8.56-.49,1.26-.68,2.72-.68,4.18v28.4h-8.36v-34.33Z"/>
    <path d="M396.78,547.2c.1,2.92-2.04,5.25-5.45,5.25-3.02,0-5.15-2.33-5.15-5.25s2.24-5.35,5.35-5.35,5.25,2.33,5.25,5.35ZM387.25,607.5v-47.07h8.56v47.07h-8.56Z"/>
    <path d="M409.13,597.19c3.79,2.33,9.34,4.28,15.17,4.28,8.66,0,13.71-4.57,13.71-11.18,0-6.13-3.5-9.63-12.35-13.03-10.7-3.79-17.31-9.34-17.31-18.58,0-10.21,8.46-17.8,21.2-17.8,6.71,0,11.57,1.56,14.49,3.21l-2.33,6.91c-2.14-1.17-6.52-3.11-12.45-3.11-8.95,0-12.35,5.35-12.35,9.82,0,6.13,3.99,9.14,13.03,12.64,11.09,4.28,16.73,9.63,16.73,19.26,0,10.11-7.49,18.87-22.95,18.87-6.32,0-13.23-1.85-16.73-4.18l2.14-7.1Z"/>
    <path d="M501.12,583.57c0,17.41-12.06,24.99-23.44,24.99-12.74,0-22.56-9.34-22.56-24.22,0-15.76,10.31-24.99,23.34-24.99s22.66,9.82,22.66,24.22ZM463.78,584.06c0,10.31,5.93,18.09,14.3,18.09s14.3-7.68,14.3-18.28c0-7.97-3.99-18.09-14.1-18.09s-14.49,9.34-14.49,18.28Z"/>
    <path d="M552.57,538.45v56.89c0,4.18.1,8.95.39,12.16h-7.68l-.39-8.17h-.19c-2.63,5.25-8.36,9.24-16.05,9.24-11.38,0-20.13-9.63-20.13-23.92-.1-15.66,9.63-25.29,21.1-25.29,7.2,0,12.06,3.4,14.2,7.2h.19v-28.11h8.56ZM544.01,579.58c0-1.07-.1-2.53-.39-3.6-1.26-5.45-5.93-9.92-12.35-9.92-8.85,0-14.1,7.78-14.1,18.19,0,9.53,4.67,17.41,13.91,17.41,5.74,0,10.99-3.79,12.55-10.21.29-1.17.39-2.33.39-3.7v-8.17Z"/>
    <path d="M592.83,607.5l-.68-5.93h-.29c-2.63,3.7-7.68,7-14.39,7-9.53,0-14.39-6.71-14.39-13.52,0-11.38,10.11-17.6,28.3-17.51v-.97c0-3.89-1.07-10.89-10.7-10.89-4.38,0-8.95,1.36-12.25,3.5l-1.94-5.64c3.89-2.53,9.53-4.18,15.46-4.18,14.39,0,17.9,9.82,17.9,19.26v17.6c0,4.08.19,8.07.78,11.28h-7.78ZM591.56,583.47c-9.34-.19-19.94,1.46-19.94,10.6,0,5.54,3.7,8.17,8.07,8.17,6.13,0,10.02-3.89,11.38-7.88.29-.88.49-1.85.49-2.72v-8.17Z"/>
  </g>
  <g>
    <rect class="st5" x="189.37" y="615.81" width="42.11" height="7.74"/>
    <rect class="st4" x="231.42" y="615.81" width="42.11" height="7.74"/>
    <rect class="st2" x="273.53" y="615.81" width="42.11" height="7.74"/>
    <rect class="st0" x="315.64" y="615.81" width="42.11" height="7.74"/>
    <rect class="st3" x="357.74" y="615.81" width="42.11" height="7.74"/>
    <rect class="st1" x="399.29" y="615.81" width="209.2" height="7.74"/>
  </g>
</svg>