<?xml version="1.0" encoding="utf-8"?>
<!-- Generator: Adobe Illustrator 28.1.0, SVG Export Plug-In . SVG Version: 6.00 Build 0)  -->
<svg version="1.1" id="Capa_1" xmlns="http://www.w3.org/2000/svg" xmlns:xlink="http://www.w3.org/1999/xlink" x="0px" y="0px"
	 viewBox="0 0 1200 675" style="enable-background:new 0 0 1200 675;" xml:space="preserve">
<style type="text/css">
	.st0{fill:#E60D5B;}
</style>
<g>
	<path class="st0" d="M903.18,355.01c-14.43,0-25.4,0-42.33,0c0,42.07-0.32,83.82,0.12,125.56c0.28,26.91-7.66,42.57-39.18,40.67
		c-36.11-2.18-40.76-4.49-40.88-41.23c-0.27-87.47,0.34-174.95-0.35-262.42c-0.21-27.01,6.45-43.19,38.04-41.75
		c35.1,1.6,41.32,5.86,42.32,40.99c0.44,15.42,0.52,30.88,0.14,46.3c-0.4,15.95,4.44,25.29,22.81,24.69
		c17.3-0.57,19.89-10.11,19.45-24.3c-0.6-19.53,0.8-39.16-0.37-58.64c-1.33-22.17,9.64-29.34,29.7-28.64
		c20.17,0.7,44.48-4.72,45.95,26.35c1.45,30.81,0.65,61.73,0.67,92.6c0.05,61.75,0.23,123.49-0.1,185.24
		c-0.2,36.46-4.93,38.75-41.29,40.84c-30.93,1.78-36.09-12.86-35.12-39.06C904.31,440.32,903.18,398.35,903.18,355.01z"/>
	<path class="st0" d="M318.19,256.17c75.41,0.35,137.8,63.28,136.52,137.71c-1.28,74.34-62.84,134.53-137.18,134.12
		c-76.7-0.42-133.34-59.99-132.66-139.51C185.51,313.62,243.74,255.83,318.19,256.17z M379.29,396.37
		c1.37-42.71-23.44-72.98-60.36-73.62c-33.39-0.58-61.82,29.46-62.72,66.26c-0.96,39.24,24.93,70.74,59.65,72.58
		C348.43,463.31,378.12,432.78,379.29,396.37z"/>
	<path class="st0" d="M588.86,361.17c-13,79.33-10.87,81.98,61.9,81.98c17.47,0,34.98,0.74,52.4-0.24
		c26.65-1.5,33.95,14.92,34.64,36.64c0.69,21.78-3.16,44.69-30.29,44.88c-49.03,0.34-98.47-0.27-147.03-6.24
		c-37.45-4.61-62.12-38.48-64.18-79.85c-1.79-35.88-1.51-71.96-0.1-107.87c1.32-33.6,18.46-50.59,52.83-51.5
		c50.32-1.32,100.72-1.1,151.05-0.07c28.39,0.58,38.95,14.56,37.87,44.49c-0.92,25.68-11.21,39.52-39.76,38.19
		C661.57,359.88,624.79,361.17,588.86,361.17z M707.95,303.41c-54.79,0-110.2-1.42-165.39,1.47c-8.66,0.45-22.09,19.84-23.31,31.52
		c-3.3,31.56-2.19,63.71-1.03,95.56c1.57,43.11,23.84,65.77,67.58,67.97c33.87,1.71,67.89,0.14,101.82,1.03
		c25.59,0.66,30.08-11.3,20.99-36.27c-17.35,0-35.6,0-53.86,0c-93.09,0-94.93-2.5-91.65-95.21c0.82-23.07,10.93-31.03,32.18-30.75
		c29.83,0.39,59.72-0.9,89.5,0.32C710.5,340.11,718.7,330.81,707.95,303.41z"/>
	<path class="st0" d="M279.4,183.81c-3.13-33.37,8.41-45.8,40.15-45.63c31.24,0.16,40.05,13.87,36.94,45.47
		c24.83,0,48.12,0.82,71.32-0.22c25.34-1.14,27.58,13.69,27.66,33.6c0.08,19.16-2.95,31.76-26.29,31.56
		c-73.99-0.64-147.99-0.52-221.99-0.1c-25.07,0.14-27.48-15.21-27.53-34.7c-0.06-19.84,6.13-31.21,28.41-30.22
		C231.38,184.62,254.77,183.81,279.4,183.81z"/>
	<path class="st0" d="M617.72,254.21c-28.75,0-57.5-0.19-86.25,0.05c-29.67,0.25-35.95-19.03-35.48-42.93
		c0.45-22.89,7.83-39.97,35.68-39.66c56.47,0.62,112.94,0.64,169.41,0.23c28.71-0.21,37.09,16,37.13,41.26
		c0.05,25.46-8.81,41.53-37.34,40.99c-27.71-0.52-55.44-0.11-83.16-0.11C617.72,254.1,617.72,254.16,617.72,254.21z M711.3,193.05
		c-59.95,0-118.17-0.57-176.35,0.89c-5.72,0.14-14.56,12.24-15.59,19.67c-0.79,5.73,8.27,18.4,13.16,18.5
		c59.1,1.3,118.24,0.84,178.78,0.84C711.3,217.87,711.3,207.08,711.3,193.05z"/>
</g>
</svg>
