<?xml version="1.0" encoding="UTF-8"?>
<svg id="Layer_1" xmlns="http://www.w3.org/2000/svg" version="1.1" viewBox="0 0 512 512">
  <!-- Generator: Adobe Illustrator 29.8.2, SVG Export Plug-In . SVG Version: 2.1.1 Build 3)  -->
  <defs>
    <style>
      .st0 {
        fill: #fff;
      }

      .st1 {
        fill: #ed1c24;
      }
    </style>
  </defs>
  <g>
    <path class="st1" d="M144.59,307.67c-14.09,14.1-37.16,14.1-51.25,0l-26.04-26.04c-14.1-14.1-14.1-37.16,0-51.26l26.04-26.04c14.1-14.1,37.16-14.1,51.25,0l26.04,26.04c14.09,14.09,14.09,37.16,0,51.26l-26.04,26.04Z"/>
    <path class="st0" d="M103.52,294.25c-2.07,0-3.76-1.62-3.84-3.69-.04-1.03.32-2.01,1.01-2.76.7-.76,1.64-1.2,2.68-1.24,2.11-.1,3.92,1.56,4.01,3.69.08,2.12-1.57,3.92-3.69,4-.06,0-.11,0-.17,0"/>
    <path class="st0" d="M117.53,223.17c-2.12,0-3.81.66-5.18,2.02-2.95,2.94-4.5,8.99-4.36,17.06.16,9.94,2.53,29.44,10.35,39.49,1.27,1.63,2.63,2.92,4.06,3.86,1.38.91,2.92,1.8,5.33,1.8.66,0,1.36-.07,2.09-.2,4.49-1.08,10.1-6.07,14.28-12.71.64-1.01,1.73-1.61,2.93-1.61.65,0,1.28.18,1.84.52.78.5,1.32,1.26,1.53,2.16.2.9.05,1.83-.44,2.61-5.28,8.4-12.26,14.3-18.65,15.78-.02,0-.09.02-.17.03-1.17.22-2.32.33-3.42.33-4.12,0-7.03-1.57-9.11-2.94-2.05-1.36-3.97-3.17-5.7-5.38-11.01-14.14-11.76-40.64-11.81-43.62-.12-7.05.9-16.61,6.4-22.07,2.69-2.67,6.06-4.02,10.01-4.02h.64c3.97,0,7.34,1.35,10.03,4.02,5.51,5.46,6.52,15.02,6.41,22.07-.13,7.35-1.47,21.58-9.09,34.34-.62,1.04-1.76,1.68-2.97,1.68-.62,0-1.24-.17-1.77-.49-1.63-.98-2.17-3.1-1.2-4.74,5.33-8.93,7.91-18.76,8.12-30.92.13-8.07-1.41-14.12-4.37-17.06-1.37-1.36-3.06-2.02-5.16-2.02h-.6Z"/>
    <path class="st1" d="M279.41,275.06c-8.16,0-14.38-8.3-14.38-18.51s6.22-18.5,14.38-18.5,14.41,8.28,14.41,18.5-6.21,18.51-14.41,18.51M279.41,232.99c-17.06,0-27.27,10.56-27.27,23.57s10.21,23.57,27.27,23.57,27.31-10.55,27.31-23.57-10.23-23.57-27.31-23.57"/>
  </g>
  <polygon class="st1" points="309.07 239.95 327.02 239.95 327.02 278.16 340.55 278.16 340.55 239.95 355.73 239.95 355.73 234.73 309.07 234.73 309.07 239.95"/>
  <polygon class="st1" points="360.66 239.95 375.81 239.95 375.81 278.16 389.33 278.16 389.33 239.95 407.33 239.95 407.33 234.73 360.66 234.73 360.66 239.95"/>
  <g>
    <path class="st1" d="M225.17,270.36v-35.63h-12.99v38.27c0,2.86,2.32,5.17,5.18,5.17h33.21v-5.22h-22.8c-1.41,0-2.6-1.13-2.6-2.58"/>
    <path class="st1" d="M414.69,239.89v33.1c0,2.86,2.33,5.17,5.19,5.17h35.4v-5.12h-24.98c-1.45,0-2.61-1.16-2.61-2.6v-12.79h27.21v-5.1h-27.21v-10.12c0-1.42,1.16-2.58,2.61-2.58h24.98v-5.12h-35.41c-2.84,0-5.18,2.3-5.18,5.17"/>
  </g>
</svg>