<?xml version="1.0" encoding="UTF-8"?>
<svg id="Capa_1" xmlns="http://www.w3.org/2000/svg" version="1.1" viewBox="0 0 1200 1200">
  <!-- Generator: Adobe Illustrator 29.8.2, SVG Export Plug-In . SVG Version: 2.1.1 Build 3)  -->
  <defs>
    <style>
      .st0 {
        fill: #fff;
      }

      .st1 {
        fill: #5a5a5a;
      }
    </style>
  </defs>
  <path class="st0" d="M606.57,741.9c-76.14,0-152.28,0-228.41,0-1.67,0-3.33.04-5-.02-9.03-.37-15.83-6.85-16-15.91-.25-13.32-.26-26.66,0-39.98.18-9.02,7-15.46,16.06-15.89,1.33-.06,2.67-.03,4-.03,152.78,0,305.55,0,458.33,0,1.5,0,3-.04,4.5.04,8.82.49,15.53,6.83,15.73,15.68.3,13.49.3,26.99,0,40.48-.2,8.79-7.01,15.16-15.8,15.61-1.66.09-3.33.03-5,.03-76.14,0-152.28,0-228.41,0ZM692.12,695.87c3.62,10.33,7.23,20.66,10.77,30.77,5.62.55,5.64.55,7.27-4.01,3.07-8.58,6.12-17.16,9.24-25.93v33.99h8.24v-48.53h-10.52c-3.61,10.46-7.18,20.78-11.07,32.04-4.04-11.51-7.66-21.82-11.23-31.98h-10.54v48.43h7.8v-34.72l.03-.08ZM501.65,706.74c-.98-4.46-1.46-8.64-2.84-12.49-2.99-8.34-10.38-13.21-19.22-13.27-8.67-.05-15.88,4.54-19.17,12.62-3.62,8.9-3.44,17.93.54,26.63,3.59,7.85,10.13,11.82,18.69,11.75,8.56-.07,15.09-4.11,18.46-12.05,1.78-4.2,2.43-8.89,3.55-13.19ZM617.63,690.15v-7.91h-29.34v48.43h30.05v-8.14h-20.2v-12.53h16.54v-8.29h-16.49v-11.57h19.45ZM629.36,682.21v48.41h30.11v-7.84h-20.26v-12.88h16.42v-8.29h-16.41v-11.74h19.54v-7.67h-29.4ZM758.15,681.96c1.02,2.12,1.67,3.61,2.43,5.04,2.68,4.98,5.22,10.04,8.17,14.86,1.72,2.82,1.5,5.03-.11,7.77-3.36,5.73-6.41,11.66-9.54,17.53-.57,1.07-.91,2.26-1.4,3.51q9.4.94,13.17-6.93c1.73-3.62,3.44-7.26,5.46-11.54,2.85,5.78,5.38,10.64,7.64,15.62,1.13,2.49,2.68,3.54,5.4,3.27,2.05-.2,4.14-.04,7.07-.04-3.89-7.12-7.02-13.54-10.82-19.53-2.48-3.91-2.35-7.01-.04-10.86,3.47-5.79,6.41-11.91,9.85-18.43h-10.16c-2.57,5.62-5.12,11.18-8.01,17.5-2.58-5.33-4.76-10.13-7.24-14.77-.67-1.25-2.13-2.64-3.43-2.87-2.53-.45-5.2-.13-8.45-.13ZM453.73,687.6c-5.98-8.02-19.42-8.49-27.63-1.91-11.65,9.33-12.34,31.06-1.22,41.03,9.04,8.1,24.67,6.5,29.74-2.41-1.55-1.7-3.15-3.48-4.7-5.18-1.74,1.16-2.92,2.09-4.23,2.8-6.34,3.45-13.4,1.4-16.46-5.13-3.2-6.83-3.23-13.94.09-20.75,3.25-6.67,10.53-8.58,16.89-4.8.95.56,1.89,1.13,2.96,1.78,1.68-2,3.14-3.75,4.56-5.43ZM537.83,702.82h-16.53v-12.91h19.39v-7.54h-29.45v48.37h9.64v-19.64h16.96v-8.28ZM558.78,711h17v-8.11h-16.61v-12.91h19.47v-7.74h-29.35v48.44h9.5v-19.68ZM741.26,682.2v48.61c1.76.09,3.23.25,4.69.23,1.44-.02,2.88-.21,4.39-.33v-48.51h-9.08Z"/>
  <g>
    <path class="st1" d="M484.79,494.04c.1,2.2.24,3.83.24,5.46,0,36.65-.11,73.3.06,109.95.03,5.88,1.24,11.76,1.96,18.07-5.72,0-11.85.37-17.91-.12-4.99-.4-7.23-3.78-7.24-9.63-.04-17.33,0-34.65,0-51.98,0-10.33.03-20.66.02-30.99,0-1.08-.13-2.17-1.11-3.49-.65,1.61-1.33,3.21-1.94,4.83-10.88,28.97-21.84,57.91-32.54,86.95-1.34,3.64-3.11,4.73-6.83,4.7-10.71-.09-10.65.06-12.56-10.4-4.99-27.34-10.04-54.67-15.07-82-.27-1.46-.68-2.89-1.69-4.41-.42,1.51-.91,3-1.26,4.52-6.75,29-13.48,58.01-20.23,87.02-1.2,5.15-1.23,5.16-6.54,5.21-3,.03-6-.01-8.99-.07-.46,0-.92-.3-1.87-.62,1.59-6.94,3.16-13.87,4.77-20.8,7.62-32.74,15.23-65.48,22.88-98.21,2.31-9.88,7.54-14.05,17.61-14.17,3.96-.05,7.93,0,12.21,0,5.23,30.37,10.37,60.26,15.51,90.14.33.05.67.1,1,.15.62-1.44,1.31-2.85,1.87-4.32,8.98-23.82,17.95-47.65,26.92-71.48.7-1.87,1.32-3.79,2.21-5.56,2.49-4.94,6.47-8.22,12.01-8.67,5.28-.43,10.61-.09,16.53-.09Z"/>
    <path class="st1" d="M760.82,627.54h-21.51c-.09-1.93-.23-3.69-.23-5.46-.01-28.32-.02-56.64,0-84.97,0-9.39,3.54-12.88,13.04-12.92,2.64-.01,5.28,0,8.48,0v9.61l.9.79c6.36-7.76,14.29-11.91,24.2-11.3,10.14.62,17.98,4.71,21.74,15.79,1.37-1.89,2.27-3.16,3.19-4.41,7.82-10.6,21.83-14.44,33.95-9.25,8.9,3.81,12.01,11.55,13.27,20.3.63,4.43.79,8.96.83,13.45.11,12.49-.09,24.99.08,37.48.14,10.24-1.36,20.61,2.76,31.07-6.01,0-11.32.28-16.6-.08-5.23-.36-7.87-3.81-7.89-9.65-.05-19.49.03-38.98-.07-58.48-.02-3.47-.34-7.02-1.18-10.37-1.26-5-4.26-8.64-9.81-9.35-5.54-.72-10.02,1.54-12.93,6.58-2.67,4.62-3.29,9.69-3.28,14.93.04,19.99.02,39.98.01,59.98,0,1.95,0,3.9,0,6.2h-21.73c0-1.92,0-3.82,0-5.73,0-20.83.08-41.65-.07-62.47-.03-3.78-.58-7.65-1.57-11.29-1.28-4.69-4.55-7.65-9.62-8.21-5.11-.56-9.14,1.24-11.99,5.54-3.06,4.62-3.97,9.79-3.96,15.23.03,20.33,0,40.65,0,60.98,0,1.81,0,3.63,0,6.05Z"/>
    <path class="st1" d="M580.92,627.6c-6.36,0-11.98.31-17.54-.1-3.95-.29-6.48-3.32-7.12-7.31-.26-1.62-.25-3.28-.4-5.66-2.09,2.24-3.68,4.07-5.41,5.78-11.09,11.01-29.88,11.59-41.3,1.29-11.72-10.57-11.61-30.19.8-41.31,4.23-3.79,9.56-6.66,14.83-8.93,7-3.02,14.43-5.06,21.69-7.46,6.42-2.12,8.71-4.47,8.89-9.27.22-6-2.96-12.09-8.36-13.43-4.52-1.12-9.77-1.71-14.15-.51-6.93,1.9-13.4,5.48-20.69,8.61-1.33-3.01-2.96-6.69-4.63-10.45,15.61-13.15,32.66-17.95,51.92-11.78,10.45,3.35,16.49,10.91,17.61,22,.44,4.3.73,8.63.77,12.95.1,12.49-.07,24.98.07,37.47.11,9.26-1.28,18.66,3.02,28.11ZM555.94,570.82c-7.75,3.56-14.77,6.53-21.54,9.97-5.19,2.64-8.92,6.87-10.84,12.49-4.06,11.9,5.24,22.56,17.6,20.21,8.33-1.59,14.11-7.33,14.67-15.96.55-8.58.12-17.22.12-26.7Z"/>
    <path class="st1" d="M591.36,627.78c11.3-17.5,21.92-33.96,32.84-50.87-11.08-17.18-22.2-34.43-33.6-52.12,7.92,0,15.02-.37,22.04.13,4.52.32,7.74,3.52,10.18,7.36,4.38,6.89,8.84,13.72,13.28,20.57.89,1.38,1.87,2.7,3.16,4.55,1.17-1.68,2.12-2.94,2.96-4.27,5.43-8.59,10.89-17.15,16.21-25.81,1.36-2.21,2.86-3.3,5.59-3.2,5.61.21,11.23.06,18,.06-11,17.04-21.44,33.19-32.19,49.84,11.27,17.47,22.61,35.05,34.54,53.54-8.84-.09-16.97,1.67-24.69-1.34-3.01-1.18-5.77-3.99-7.71-6.71-4.92-6.91-9.31-14.2-13.92-21.33-.89-1.38-1.86-2.71-3.12-4.53-1.1,1.43-2.04,2.47-2.78,3.64-5.36,8.43-10.93,16.75-15.92,25.39-2.32,4.02-5.05,5.52-9.55,5.17-4.62-.36-9.3-.08-15.33-.08Z"/>
    <path class="st1" d="M717.01,524.19c.14,2.27.34,3.89.34,5.51,0,24.64-.04,49.28-.05,73.92,0,7.8-.45,15.65,3.25,24.07-6.97-.11-13.15.92-19.28-.66-3.16-.81-4.94-3.28-5.31-6.57-.17-1.48-.16-2.99-.16-4.49,0-26.14-.02-52.28,0-78.41,0-10.17,3.25-13.35,13.52-13.37,2.45,0,4.9,0,7.69,0Z"/>
    <path class="st1" d="M635.9,458.05c-.92.56-1.83,1.13-2.75,1.68-2,1.19-4.13,2.2-5.97,3.6-3.98,3-7.35,6.51-6.31,12.1,1,5.37,5.21,7.7,9.83,8.78,8.25,1.92,16.62,3.3,24.95,4.83,7.7,1.42,15.37,2.79,22.16,7.13,7.83,5.01,10.81,15.68,5.73,24.07-.23-.17-.65-.32-.68-.52-1.54-11.64-9.64-16.13-19.92-17.66-6.06-.9-12.26-1.01-18.41-1.11-9.05-.15-17.95-1.18-26.5-4.19-3.25-1.14-6.5-2.71-9.28-4.73-9.16-6.65-9.75-19.02-1.24-26.8,8.01-7.34,17.83-8.6,28.38-7.17Z"/>
  </g>
  <path d="M692.09,695.95v34.72h-7.8v-48.43h10.54c3.57,10.16,7.19,20.46,11.23,31.98,3.89-11.26,7.45-21.59,11.07-32.04h10.52v48.53h-8.24v-33.99c-3.12,8.77-6.17,17.36-9.24,25.93-1.63,4.56-1.66,4.56-7.27,4.01-3.54-10.11-7.15-20.44-10.77-30.77,0,.03-.02.05-.03.08Z"/>
  <path d="M501.65,706.74c-1.12,4.31-1.77,8.99-3.55,13.19-3.36,7.94-9.9,11.99-18.46,12.05-8.56.07-15.1-3.9-18.69-11.75-3.98-8.71-4.16-17.74-.54-26.63,3.29-8.09,10.5-12.68,19.17-12.62,8.84.05,16.23,4.92,19.22,13.27,1.38,3.85,1.86,8.03,2.84,12.49ZM491.63,706.3c-1.03-3.95-1.61-7.58-2.94-10.91-1.53-3.82-4.76-6.01-8.95-6.1-4.42-.09-7.73,2.14-9.47,6.11-3.31,7.54-3.22,15.2.42,22.63,1.74,3.55,4.82,5.52,8.82,5.5,3.99-.02,7.26-1.9,8.74-5.55,1.53-3.77,2.31-7.85,3.38-11.68Z"/>
  <path d="M617.63,690.15h-19.45v11.57h16.49v8.29h-16.54v12.53h20.2v8.14h-30.05v-48.43h29.34v7.91Z"/>
  <path d="M629.36,682.21h29.4v7.67h-19.54v11.74h16.41v8.29h-16.42v12.88h20.26v7.84h-30.11v-48.41Z"/>
  <path d="M758.15,681.96c3.25,0,5.92-.32,8.45.13,1.29.23,2.76,1.62,3.43,2.87,2.48,4.64,4.66,9.43,7.24,14.77,2.89-6.32,5.44-11.88,8.01-17.5h10.16c-3.45,6.52-6.38,12.63-9.85,18.43-2.31,3.86-2.44,6.95.04,10.86,3.8,6,6.93,12.42,10.82,19.53-2.92,0-5.01-.16-7.07.04-2.72.27-4.27-.79-5.4-3.27-2.26-4.98-4.79-9.84-7.64-15.62-2.02,4.28-3.73,7.92-5.46,11.54q-3.76,7.88-13.17,6.93c.49-1.25.83-2.44,1.4-3.51,3.13-5.87,6.17-11.79,9.54-17.53,1.61-2.74,1.83-4.95.11-7.77-2.94-4.82-5.49-9.88-8.17-14.86-.77-1.43-1.42-2.92-2.43-5.04Z"/>
  <path d="M453.73,687.6c-1.41,1.68-2.88,3.44-4.56,5.43-1.08-.65-2.02-1.22-2.96-1.78-6.36-3.78-13.64-1.87-16.89,4.8-3.32,6.8-3.29,13.91-.09,20.75,3.06,6.53,10.12,8.58,16.46,5.13,1.31-.71,2.5-1.64,4.23-2.8,1.55,1.7,3.15,3.47,4.7,5.18-5.07,8.91-20.7,10.51-29.74,2.41-11.12-9.97-10.43-31.7,1.22-41.03,8.21-6.58,21.65-6.1,27.63,1.91Z"/>
  <path d="M537.83,702.82v8.28h-16.96v19.64h-9.64v-48.37h29.45v7.54h-19.39v12.91h16.53Z"/>
  <path d="M558.78,711v19.68h-9.5v-48.44h29.35v7.74h-19.47v12.91h16.61v8.11h-17Z"/>
  <path d="M741.26,682.2h9.08v48.51c-1.51.12-2.95.31-4.39.33-1.46.02-2.93-.13-4.69-.23v-48.61Z"/>
  <path class="st0" d="M692.09,695.95s.02-.05.03-.08l-.03.08Z"/>
  <path class="st0" d="M491.63,706.3c-1.08,3.84-1.85,7.91-3.38,11.68-1.49,3.66-4.75,5.53-8.74,5.55-4.01.02-7.09-1.96-8.82-5.5-3.64-7.43-3.73-15.08-.42-22.63,1.74-3.96,5.05-6.2,9.47-6.11,4.2.09,7.42,2.28,8.95,6.1,1.34,3.32,1.91,6.95,2.94,10.91Z"/>
</svg>