<?xml version="1.0" encoding="utf-8"?>
<!-- Generator: Adobe Illustrator 28.1.0, SVG Export Plug-In . SVG Version: 6.00 Build 0)  -->
<svg version="1.1" id="Capa_1" xmlns="http://www.w3.org/2000/svg" xmlns:xlink="http://www.w3.org/1999/xlink" x="0px" y="0px"
	 viewBox="0 0 1200 675" style="enable-background:new 0 0 1200 675;" xml:space="preserve">
<style type="text/css">
	.st0{fill:#253779;stroke:#FFFFFF;stroke-width:5.7867;stroke-miterlimit:10;}
	.st1{fill:#FFFFFF;}
	.st2{fill:none;}
	.st3{fill:#E96295;}
</style>
<path class="st0" d="M388.68,182.48c0,0,47.58-109.31,192.91-111.89s189.05,110.6,189.05,110.6s168.47,15.43,168.47,168.47
	S756.49,514.28,756.49,514.28s-52.73,86.17-172.33,86.17S405.4,516.86,405.4,516.86S231.78,513,222.78,343.24
	C238.21,191.49,388.68,182.48,388.68,182.48z"/>
<ellipse class="st1" cx="469.66" cy="284.52" rx="7.3" ry="7.02"/>
<ellipse class="st1" cx="493.81" cy="284.52" rx="7.3" ry="7.02"/>
<polygon class="st1" points="435.97,207.32 435.97,294.35 452.82,294.35 452.82,239.32 480.89,261.78 507.85,239.88 506.72,294.91 
	523.57,294.91 523.57,207.88 481.46,241.57 "/>
<g>
	<rect x="680.93" y="232.02" class="st1" width="65.7" height="10.67"/>
	<rect x="707.6" y="234.27" class="st1" width="12.35" height="59.52"/>
</g>
<g>
	<path class="st2" d="M547.71,242.15c-0.28,0.37-0.56,0.74-0.85,1.11h0.85V242.15z"/>
	<path class="st1" d="M548.84,282.56v0.9l-1.12-0.9v-15.72h41.55v-11.79h-41.55v-11.23h50.54V230.9h-50.54
		c-12.91,0-14.04,12.35-14.04,12.35v40.99c2.81,11.79,15.16,10.67,15.16,10.67h50.54v-12.35H548.84z M547.71,242.15v1.11h-0.85
		C547.15,242.89,547.44,242.52,547.71,242.15z"/>
</g>
<g>
	<path class="st2" d="M622.39,242.71c-0.28,0.37-0.56,0.74-0.85,1.11h0.85V242.71z"/>
	<path class="st1" d="M623.52,283.12v0.9l-1.12-0.9V267.4h41.55v-11.79h-41.55v-11.23h50.54v-12.91h-50.54
		c-12.91,0-14.04,12.35-14.04,12.35v40.99c2.81,11.79,15.16,10.67,15.16,10.67h50.54v-12.35H623.52z M622.39,242.71v1.11h-0.85
		C621.83,243.45,622.12,243.08,622.39,242.71z"/>
</g>
<g>
	<path class="st2" d="M453.4,350.49c-0.4,0.54-0.81,1.07-1.23,1.6h1.23V350.49z"/>
	<path class="st3" d="M455.02,408.95v1.3l-1.62-1.3v-22.75h60.11v-17.06H453.4V352.9h73.11v-18.68H453.4
		c-18.68,0-20.31,17.87-20.31,17.87v59.3c4.06,17.06,21.93,15.43,21.93,15.43h73.11v-17.87H455.02z M453.4,350.49v1.6h-1.23
		C452.59,351.56,453,351.02,453.4,350.49z"/>
</g>
<path class="st3" d="M576.72,333.66c-26.26,0-47.54,21.28-47.54,47.54s21.28,47.54,47.54,47.54c26.26,0,47.54-21.28,47.54-47.54
	S602.98,333.66,576.72,333.66z M577.28,410.58c-16.28,0-29.48-13.2-29.48-29.48c0-16.28,13.2-29.48,29.48-29.48
	s29.48,13.2,29.48,29.48C606.76,397.38,593.57,410.58,577.28,410.58z"/>
<path class="st3" d="M759.62,410.58c-2.25-1.38-4.24-3.2-5.28-5.62v-72.43h-14.04v72.43c0,0,0.56,16.28,17.41,21.34h61.2v-15.72
	H759.62z"/>
<path class="st3" d="M709.43,334.22v58.96c0,0-8.98,17.41-31.44,17.41s-29.2-19.09-29.2-19.09v-58.96h-14.6v58.96
	c0,0,5.62,36.5,44.92,35.94c39.31-0.56,44.92-34.25,44.92-34.25v-58.96H709.43z"/>
<path class="st3" d="M402.28,426.52c11.79-1.68,17.41-18.19,17.41-18.19s-0.56-4.49-0.56-19.65s-21.34-20.21-21.34-20.21
	s-37.06-1.12-43.8-1.12c-6.74,0-6.18-3.37-6.18-8.42c0-5.05,4.49-7.3,4.49-7.3s39.87,0,48.29,0.56c8.42,0.56,5.05,6.74,5.05,6.74
	l15.16,1.12c0,0-1.12-23.58-17.41-23.58c-16.28,0-52.78-0.56-52.78-0.56s-17.41,2.25-17.97,23.02
	c-0.56,20.78,16.85,23.58,16.85,23.58l46.04,1.12c0,0,10.67,1.12,10.11,12.91s-8.42,12.91-8.42,12.91l-40.99,0.56
	c0,0-6.74-2.25-4.49-11.23h-21.34c0,0,4.49,26.39,20.21,27.51C366.35,427.43,402.28,426.52,402.28,426.52z"/>
</svg>
