<?xml version="1.0" encoding="UTF-8"?>
<svg id="Capa_3" xmlns="http://www.w3.org/2000/svg" version="1.1" viewBox="0 0 3297.36 1200">
  <!-- Generator: Adobe Illustrator 29.8.2, SVG Export Plug-In . SVG Version: 2.1.1 Build 3)  -->
  <defs>
    <style>
      .st0 {
        fill: #ed1c24;
      }
    </style>
  </defs>
  <path d="M1391.88,748.24c-34.69,4.4-42.98-16.34-42.98-16.34l-92.64-165.93v152.22c0,16.52-13.52,30.04-30.04,30.04h0c-16.52,0-30.04-13.52-30.04-30.04v-219.6c0-16.52,13.52-30.04,30.04-30.04h0s30.29-5.66,44.75,14.46,89.88,151.47,89.88,151.47v-135.88c0-16.52,13.52-30.04,30.04-30.04h0c16.52,0,30.04,13.52,30.04,30.04v219.6c0,16.52-13.52,30.04-30.04,30.04h0"/>
  <path d="M1940.57,748.24c-34.69,4.4-42.98-16.34-42.98-16.34l-92.64-165.93v152.22c0,16.52-13.52,30.04-30.04,30.04h0c-16.52,0-30.04-13.52-30.04-30.04v-219.6c0-16.52,13.52-30.04,30.04-30.04h0s30.29-5.66,44.75,14.46,89.88,151.47,89.88,151.47v-135.88c0-16.52,13.52-30.04,30.04-30.04h0c16.52,0,30.04,13.52,30.04,30.04v219.6c0,16.52-13.52,30.04-30.04,30.04h0"/>
  <path d="M1582.7,458.57c72.55,0,131.36,65.97,131.36,147.35s-58.81,147.35-131.36,147.35-131.36-65.97-131.36-147.35,58.81-147.35,131.36-147.35ZM1583.02,520.72c-35.23,0-63.79,38.69-63.79,86.42s28.56,86.42,63.79,86.42,63.79-38.69,63.79-86.42-28.56-86.42-63.79-86.42Z"/>
  <g>
    <rect x="2192.35" y="613.11" width="55.94" height="135.74" rx="27.97" ry="27.97"/>
    <rect x="2157.16" y="595.52" width="90.96" height="50.91" rx="12" ry="12"/>
    <rect x="2133.27" y="595.52" width="81.71" height="50.91" rx="25.45" ry="25.45"/>
    <path d="M2233.55,513.4c9.51,13.26,9.44,30.66-2.38,40.61-11.82,9.95-29.91,7.89-40.42-4.59,0,0-24.17-39.38-57.48-39.38s-72.28,42.54-72.28,89.46,23.88,104.75,72.28,104.75,64.11-59.08,64.11-59.08l-1.26,64.74-3.77,10.98s-11.94,32.38-62.22,32.38-130.1-38.34-130.1-155.24c0,0,6.91-131.85,133.24-139.46,0,0,61.65.99,100.28,54.83Z"/>
  </g>
  <path d="M2335.91,663.87c-8.18-13.1-28.01-12.43-39.5-2.1-11.49,10.33-9.68,26.04-2.1,39.5,8.94,15.87,43.86,55.78,104.19,55.15s111.25-37.08,111.25-91.76-65.36-82.96-107.47-88.62c-42.11-5.66-51.54-22-51.54-32.05s12.57-27.65,41.48-29.54c28.91-1.89,53.56,32.84,53.56,32.84,10.33,11.49,28.01,12.43,39.5,2.1,11.49-10.33,12.43-28.01,2.1-39.5,0,0-16.9-46.35-88.4-46.35s-109.21,49.02-109.21,77.31c0,28.28,10.06,74.16,101.82,93.02,0,0,50.91,8.8,49.02,36.45s-46.51,33.31-46.51,33.31c0,0-29.65,5.97-58.19-39.75Z"/>
  <g>
    <rect x="2543.06" y="468.56" width="59.08" height="279.69" rx="29.54" ry="29.54"/>
    <rect x="2705.84" y="469.19" width="59.08" height="279.69" rx="29.54" ry="29.54"/>
    <rect x="2569.46" y="574.78" width="157.13" height="54.05" rx="12" ry="12"/>
  </g>
  <rect x="2822.75" y="468.56" width="59.08" height="279.69" rx="29.54" ry="29.54"/>
  <path d="M3076.66,748.87c-24.29-.63-34.26-26.4-34.26-26.4l-46.09-161.53v157.13c0,16.25-13.17,29.54-29.27,29.54h0c-16.1,0-29.27-13.29-29.27-29.54v-220.61c0-16.25,12.98-28.92,29.08-28.92h34.48s15.76-1.82,24.41,22.02,49.33,144.47,50.93,144.47"/>
  <path d="M3076.66,748.58c23.95-.63,33.77-26.4,33.77-26.4l45.44-161.53v157.13c0,16.25,12.99,29.54,28.86,29.54h0c15.87,0,28.86-13.29,28.86-29.54v-220.61c0-16.25-12.8-28.92-28.67-28.92h-33.99s-18.66-1.82-27.19,22.03c-8.53,23.85-45.51,144.46-47.08,144.46"/>
  <path class="st0" d="M1032.49,622.29c0,221.06-209.78,400.26-468.57,400.26S95.35,843.35,95.35,622.29s209.78-400.26,468.57-400.26,468.57,179.2,468.57,400.26ZM564.75,266.24c-83.36,0-150.94,95.8-150.94,213.96s67.58,213.96,150.94,213.96,150.94-95.8,150.94-213.96-67.58-213.96-150.94-213.96Z"/>
</svg>