<?xml version="1.0" encoding="UTF-8"?>
<svg id="Layer_2" xmlns="http://www.w3.org/2000/svg" version="1.1" viewBox="0 0 1008 612">
  <!-- Generator: Adobe Illustrator 29.8.2, SVG Export Plug-In . SVG Version: 2.1.1 Build 3)  -->
  <defs>
    <style>
      .st0 {
        fill: #fff;
      }

      .st1 {
        fill: #eb2227;
      }
    </style>
  </defs>
  <g>
    <path class="st1" d="M509,109c-250,0-424,70.29-424,157s163,157,424,157,424-70.29,424-157-145.63-157-424-157ZM353.16,351.6c-22.21,16.67-42.18,21.31-70.73,21.31-19.18,0-75.85-1.9-75.85-70.31,1.75-48.73,20.68-93.89,44.31-115.9,15.43-14.37,35.12-28.55,80.11-28.55s59.17,17.52,69.46,35.37c13.73,23.83,7.39,117.04-47.3,158.09ZM602,346.33c-1,2.67-9.33,24.66-41,24.67-33.4,0-52-31.67-74.33-78.67-.15-.32-.53-.33-.64.09-.11.42-12.98,53.57-9.69,67.78.8,2.79,1.95,4.29,1.32,4.79-3.9,1.97-31.67,4.33-49.33,3.67-17.67-.67-29,1-24-21s30.67-105.33,34-153c.33-12-1.69-18.26-3.81-22.49-.38-.67-.09-1.04.21-1.15,6.36-2.36,35.84-9.34,55.27-8.7,20.33.67,24.67,5,21.67,19s-11.33,47-12.67,54c-.03.54.32.35.45.2,11.29-13.61,47.87-55.44,74.21-67.53,17.26-7.92,46.12-4.27,52.22,5.71.32.52,1.01,1.49.68,2.67-1.46,4.27-57.92,47.15-93.16,83.42-.59.76-.84,1.11-.55,1.72.69,1.63,35.47,78.82,70.14,77.49,1,.33,0,4.67-1,7.33ZM769.06,339.49h-9.3v23.39h-2.76v-23.39h-9.01v-2.47h21.07v2.47ZM800.51,363.17h-3.05v-22.3h-.51l-8.28,22.3h-2.98l-7.76-22.3h-.45v22.01h-2.83v-25.86h4l8.28,22.08h.94l8.43-22.08h4.21v26.15ZM806.25,161.75c-.12,1.25-1.07,30.34-12.5,38.75-9,6.62-20.88,7.62-30.12,7.75s-35-.5-38.75-.25-9.12,2.12-10.75,11.62c-1.91,11.16-5.3,24.69-5.62,26.21-.33,1.33.8,1.33,3.16,1.33s49.61-.51,73.95-4.18c3.09-.31,3.72-.99,3.39,2.01s-3.08,20.38-6.4,29.14c-3.17,8.35-8.05,10.7-16.35,13.19-9.38,2.82-43.17,3.14-61.12,3.67-3.12,0-7,.38-8.75,7.75s-9.57,38.42-9.71,48.92c-.12,9.67.43,14.32.63,15.78.2,1.46.67,2.55-1.42,3.11-2.82.75-14.01,3.17-32.2,3.13-17.75-.03-22.92.68-28.92-.69s-12.12-3.5-8.25-19.38,20.83-73.62,26.83-107.29c6-33.67,7.74-48.36,6.16-52.59-2.51-6.69-7.22-10.68-9.69-11.92-2.72-1.75-2.84-2.52-1.35-3.12,1.49-.6,12.8-5.71,35.68-7.08s80.75-.5,94.38-1.88,33.62-5,35.88-5.75,2,.5,1.88,1.75Z"/>
    <path class="st1" d="M509.23,81.27C215.88,81.27,15.18,163.95,15.18,265.93s198.7,184.66,494.05,184.66,494.05-82.67,494.05-184.66-181.4-184.66-494.05-184.66ZM508.5,434c-275.62,0-455.5-75.22-455.5-168S236.88,98,508.5,98c299.38,0,455.5,75.22,455.5,168s-172.12,168-455.5,168Z"/>
    <path class="st1" d="M320.33,188.33c-12-.33-28.67,12-41.33,73-12.67,61,0,78.67,12,79.33,12,.67,28.67-14,40.33-66,11.67-52,7.33-85.82-11-86.33Z"/>
  </g>
  <g>
    <path class="st0" d="M1689,109c-250,0-424,70.29-424,157s163,157,424,157,424-70.29,424-157-145.63-157-424-157ZM1533.16,351.6c-22.21,16.67-42.18,21.31-70.73,21.31-19.18,0-75.85-1.9-75.85-70.31,1.75-48.73,20.68-93.89,44.31-115.9,15.43-14.37,35.12-28.55,80.11-28.55s59.17,17.52,69.46,35.37c13.73,23.83,7.39,117.04-47.3,158.09ZM1782,346.33c-1,2.67-9.33,24.66-41,24.67-33.4,0-52-31.67-74.33-78.67-.15-.32-.53-.33-.64.09-.11.42-12.98,53.57-9.69,67.78.8,2.79,1.95,4.29,1.32,4.79-3.9,1.97-31.67,4.33-49.33,3.67-17.67-.67-29,1-24-21s30.67-105.33,34-153c.33-12-1.69-18.26-3.81-22.49-.38-.67-.09-1.04.21-1.15,6.36-2.36,35.84-9.34,55.27-8.7,20.33.67,24.67,5,21.67,19s-11.33,47-12.67,54c-.03.54.32.35.45.2,11.29-13.61,47.88-55.44,74.21-67.53,17.26-7.92,46.12-4.27,52.22,5.71.32.52,1.01,1.49.68,2.67-1.46,4.27-57.92,47.15-93.16,83.42-.59.76-.84,1.11-.55,1.72.69,1.63,35.47,78.82,70.14,77.49,1,.33,0,4.67-1,7.33ZM1949.06,339.49h-9.3v23.39h-2.76v-23.39h-9.01v-2.47h21.07v2.47ZM1980.51,363.17h-3.05v-22.3h-.51l-8.28,22.3h-2.98l-7.76-22.3h-.45v22.01h-2.83v-25.86h4l8.28,22.08h.94l8.43-22.08h4.21v26.15ZM1986.25,161.75c-.12,1.25-1.07,30.34-12.5,38.75-9,6.62-20.88,7.62-30.12,7.75s-35-.5-38.75-.25-9.12,2.12-10.75,11.62c-1.91,11.16-5.3,24.69-5.62,26.21-.33,1.33.8,1.33,3.16,1.33s49.61-.51,73.95-4.18c3.09-.31,3.72-.99,3.39,2.01s-3.08,20.38-6.4,29.14c-3.17,8.35-8.05,10.7-16.35,13.19-9.38,2.82-43.17,3.14-61.12,3.67-3.12,0-7,.38-8.75,7.75s-9.57,38.42-9.71,48.92c-.12,9.67.43,14.32.63,15.78s.67,2.55-1.42,3.11c-2.82.75-14.01,3.17-32.2,3.13-17.75-.03-22.92.68-28.92-.69s-12.12-3.5-8.25-19.38,20.83-73.62,26.83-107.29c6-33.67,7.74-48.36,6.16-52.59-2.51-6.69-7.22-10.68-9.69-11.92-2.72-1.75-2.84-2.52-1.35-3.12,1.49-.6,12.8-5.71,35.68-7.08s80.75-.5,94.38-1.88,33.62-5,35.88-5.75,2,.5,1.88,1.75Z"/>
    <path class="st0" d="M1500.33,188.33c-12-.33-28.67,12-41.33,73-12.67,61,0,78.67,12,79.33,12,.67,28.67-14,40.33-66,11.67-52,7.33-85.82-11-86.33Z"/>
    <path class="st0" d="M1689.23,81.27c-293.35,0-494.05,82.67-494.05,184.66s198.7,184.66,494.05,184.66,494.05-82.67,494.05-184.66-181.4-184.66-494.05-184.66ZM1688.5,434c-275.62,0-455.5-75.22-455.5-168s183.88-168,455.5-168c299.38,0,455.5,75.22,455.5,168s-172.12,168-455.5,168Z"/>
  </g>
</svg>