<svg version="1.2" xmlns="http://www.w3.org/2000/svg" viewBox="0 0 1501 1470" width="1501" height="1470">
	<title>17591_38660_950-svg</title>
	<style>
		.s0 { fill: #ffffff } 
		.s1 { fill: #da0000 } 
	</style>
	<g id="#ffffffff">
		<path id="Layer" fill-rule="evenodd" class="s0" d="m678.9 42.8c31.3-3.8 63.1-7.8 94.8-4.9c72.3 3.9 144 24.8 206.2 62.4c82.1 49.7 148.5 126 183.8 215.5c11.4 28.7 19.6 58.5 25.2 88.8c3.5 21.3 5.6 42.9 6.8 64.4c73.5 8.5 146 41.2 194.9 97.7c41 46.7 63.1 107.7 68.7 169.1c5.2 44 0.7 88.6-7.6 132c-22.5 110.6-75.2 214-145.4 301.9c-76.8 95.3-178.3 170.6-292.6 214.6c-123.2 48-259.4 58.1-389.5 38c-151.8-23.4-295.5-98.6-399.5-211.8c-75.8-82.2-133.5-181.5-164.2-289.1c-10-36.4-18.1-73.7-20-111.5c-4.5-36.4-0.9-73.4 5.4-109.5c11.4-59.2 40-116 85.6-156.3c47.6-42.8 109.7-67.8 172.9-75.2c3.7-106.4 45.4-211.9 118.6-289.7c67-72.2 158.3-121.6 255.9-136.4zm-18.5 135c-2.9 1-5.9 2-8.8 2.9c-98.6 31.8-176.5 117.8-200.5 218.3c-15.2 61.6-10.2 127.7 13.4 186.5c-41-0.3-82 0.2-123-0.4c-60.7 1.3-123.4 28.6-156.8 80.9c-33.2 53.4-41.8 119.7-31.6 181.1c14.6 81.2 59.2 153.7 112.7 215.1c68.9 79.7 155.2 145.1 252.8 185.5c59.4 24.3 122.7 39.5 186.9 42.8c11.7 2.1 23.7 1.7 35.6 1.8c83.2 1.4 167.1-14 243.8-46.8c99.2-42.1 185.4-111 254.3-193.4c38.5-45.8 71.8-96.9 91.7-153.7c12.4-33.8 18.2-69.7 19.6-105.7c-1.6-48.9-12.9-99.8-43.9-139c-37.4-47.7-100-70.1-159.4-68.6c-37.1 0.6-74.3 0.2-111.4 0.2c31.9-81.3 28.1-176-12.1-253.8c-32-62.8-86.3-114.1-151.2-141.7c-66.4-28.9-142.8-32.8-212.1-12z"/>
		<path id="Layer" fill-rule="evenodd" class="s0" d="m690 180.6c47.6-9.6 97.1-7.3 143.7 5.9l1.9 1c72.8 21.1 136.1 72.1 173.2 138.1c46.6 81.4 51.1 185.2 11.1 270.2c40.4-0.2 80.7 0.1 121.1-0.2c50.6-3.3 103.9 11.6 141.4 46.8c22.9 20.9 37.8 49.1 47.1 78.4c16.6 55.6 12.1 115.7-6.8 170.1c-16.1 46.6-41.1 89.8-70.9 128.9c-70.5 91.8-161.8 169.2-268.7 215.2c-95.3 41.6-201.7 54.8-304.6 43.2c-91.9-9.9-180.6-43.4-257.9-93.9c-75.2-49.1-140.6-113.2-192-186.9c-42.5-62.5-73.3-136.7-69-213.6c3.1-48.8 17.8-99.3 52-135.6c36.9-38.2 91.9-55.8 144.2-52.6c41.3 0.4 82.7 0 124 0.2c-29.4-64.4-35.4-139.2-15.2-207.1c27.1-94.8 104.4-173.5 199.1-201.2c8.7-2.6 17.5-4.7 26.3-6.9zm48.4 30.3c-8.9 4.2-15.4 12.3-24.4 16.2c-18.9 2.8-36.2-7.3-54.1-11.1c-22.4-3.4-45.1 7.3-59.6 24.2c-12.7 13.2-20 32.8-14.5 50.9c1.7 8.4 8.2 18 1.7 25.9c-16.9 18.7-29.6 40.6-40.4 63.2c-13.8 29-18.8 61.4-18.4 93.3c2.6 27.9 11.1 56.3 30.3 77.4c14.5 15.4 17.4 37.4 29.2 54.4c28.1 45.5 76.1 77.3 128.7 86.5c28.2 2.5 57.1 3.1 84.6-4.5c55-13.8 101.6-52.1 132-99.2c3.5-5.2 7.1-11.5 13.9-12.8c11.4-3.1 23.3-7.1 31.5-16.3c15.8-16.1 19.8-43.1 7.6-62.4c-4.9-9.9-16.8-16.6-16.2-28.9c0.3-23.7-1.5-47.5-7.6-70.5c-14.8-56.8-49.1-106.7-90.6-147.4c-18.1-18.4-38.8-35.7-64.3-42.5c-22.6-5.9-48-6.9-69.4 3.6zm-539.6 487.9c-22.2 41.5-23.3 90.1-19.2 136c10 67.1 41.3 129.5 83.4 182.2c57.6 71.2 128.5 132.1 209.4 175.5c83.7 45.8 178.8 71.9 274.5 71.1c81.7 1 163.5-17.3 237.7-51.5c103.9-47.8 194.3-123.5 261.3-216c52.5-72.3 84.9-164.1 68.2-253.8c-7.6-33.4-24.4-64.8-48.3-89.3c-26.8-26-63.2-43.6-100.9-43.3c-73.5 0.2-147 0.1-220.5 0.1c-26.1 47-69.7 84.2-120.6 101.8c-40.5 14.3-85.2 16.7-126.9 6.2c-59.3-14.5-112-54.3-141.2-108q-114.7 0-229.3 0c-55 2.4-104.7 39.7-127.6 89z"/>
		<path id="Layer" fill-rule="evenodd" class="s0" d="m767.6 300c13.3-10.8 32.1-9 47.6-4.4c25.4 7.6 50.6 21.3 65.4 44c11.1 15.9 11.2 36.8 5.1 54.6c14 9.9 25.2 26.2 20.3 44.1c-10.9 0.1-24.2-4.3-32.5 5c4 9 8.3 18.6 16.8 24.2c9.1 6.2 19.6 12.7 22.6 24.1c3.9 9-4.1 21.8 6.2 27.8q5.9-1.9 12.1-3.3c5.5-4.4 9.2-11.4 15.7-14.2c15.3 1.8 17.9 24.1 9.1 34.2c-4.2 6.4-12.3 4.6-18.7 4.6c-1.2-1.5-3.5-4.7-4.7-6.2c-8-1.6-16.1-3.9-24.3-3c-4 0.2-4.3 4.5-5.6 7.3c-5.4 15.3-12.5 30.8-25.5 41.2c-5.9 5-13.4 8.6-16.8 15.8c-2.2 11.2 2.3 25.3-8.5 33.2c-32.1 27.2-76.3 33.7-117.1 33c-41.6-4.8-78.8-27.5-109.2-55.2c-10.5-8.2-6.3-23.5-14.2-33.3c-6.4-7.7-15-13.1-21.6-20.6c-19.7-21.4-28.3-50.8-30-79.3c-2.8-32.3 9.4-63.5 24.5-91.3c8.9-16.2 20.1-31.1 32.9-44.4c26.2 8.4 58 7.1 79.2-12.3c18 11.8 37.8 23.5 60 23.9c12.5-4.7 23.8-12.4 31.9-23.3c-8.3-0.4-18.2 2.4-24.9-4.2c-4.1-7.1-2.6-17 4.2-22zm41.1 44.6c-5.9 2.6-13 1.5-18.3 5.5c-4.3 6.2-5.8 15.5-1.5 22.1c4.2 7 13.7 4.9 20.4 3.9c8.2-3.5 13.1-11.7 20.8-16.2c9.4-6.8 21.5-3.9 32.3-3.8c-1.3-5.6-2.7-11.1-4-16.7c-5.2-4.8-11.3-9.3-18.8-7.9c-12.1-1.1-20.3 9.4-30.9 13.1zm-169.8 8.2c-16.1 4.7-28.3 17.4-38.2 30.4c13.4-6.2 26.8-13.9 41.9-15.1c10-0.8 19.2 5 24.6 13.2c0.8 0.5 2.5 1.4 3.3 1.9c1.3-7 5-14.9 0.5-21.6c-6-11.7-21.1-10.5-32.1-8.8zm-37.4 39.3c2.2 13.1 6.5 27.7 18.9 34.6c13.5 6.9 28.7 1.7 41.9-3.3c-10.5 0.5-21.9 2.1-31.5-3.5c-12.5-5.9-20.9-17.2-29.3-27.8zm89.5 10.8c2 8.7 4.1 17.4 4 26.4c-7.4 3.7-15.8 4.9-22.9 9.1c-3.4 4.4-3.4 12.3 2 15.2c11.1 8.2 25 10.5 38.2 13.1c-7-5.1-13.4-11.1-19.1-17.8c6-4.6 17.3-5.5 17.6-14.9c-0.3-13.2-11.6-22-19.8-31.1zm68.8 11.6c-22.3 6.5-28 39.1-9.3 52.9c16.5 13.9 45.3 4.2 48.9-17.4c6-22.1-18.2-43.5-39.6-35.5zm-146.8 70.5c9.5 2.2 20.2 3.9 26.5 12.2c14.6 17.7 32.8 33 54.5 41.2c32.9 12.9 69.4 11.7 103.6 5.5c13.8-2.4 27-7.8 38.1-16.4c-0.2-0.5-0.6-1.7-0.8-2.3c-13.4 6.4-27.6 11.5-42.4 13.7c-1.2-15.5 2.8-32.6-6.2-46.5c-5.3 0.5-11.1 0.7-14.9 5c-13 12.7-27.4 24.6-44.5 31.3c-10.8 4.3-22.6 3.1-33.9 2.7c-12.7-7.1-25.4-14.5-35.8-24.8c-8.6-7.3-14.8-18-25.9-21.9c-6-1.5-12.3-0.3-18.3 0.3zm10.9 85.3c5 9.3 5.9 19.8 8.8 29.7c9.7 12.7 26.9 19.7 42.7 17.6c11.6-1.7 20.5-9.9 28.6-17.7c-17 8.5-38.6 13.5-55.6 2.2c-8.8-4.7-11-14.9-13-23.7c-3.8-2.8-7.7-5.5-11.5-8.1z"/>
		<path id="Layer" class="s0" d="m748.1 536.6c7.6-4.1 14.4-9.5 20.9-15.3c-2.5 5.6-5.3 10.9-8.7 15.9q-6.1-0.3-12.2-0.6z"/>
		<path id="Layer" fill-rule="evenodd" class="s0" d="m345.1 751.8c38.7-27.2 89-34.6 134.9-25.5c37.1 7.6 73.1 28.1 93.4 60.9c17.3 27.6 17.9 64.7 1.2 92.8c-19.3 33-54.5 54.3-91.4 62.3c0 21.4 0 42.9 0 64.3c30.3 0 60.7 0.1 91.1 0c0 12.1-0.1 24.2 0 36.3c-87.7-0.1-175.5-0.1-263.3 0c0.1-12.1 0.1-24.2 0.1-36.3c30.3 0.2 60.7-0.1 91 0.1c0.1-21.4 0.2-42.9 0-64.3c-37.5-8.3-74-30-92.8-64.4c-11-19.3-13.2-42.6-8.8-64.2c6-25.6 23.8-46.7 44.6-62zm89.2 2.7c-19.7 3.6-35.5 18.4-44.4 35.8c-11.4 22.8-13.6 49.9-5.8 74.2c6.4 21.2 21.3 41 42.7 48.5c16.6 5.9 35.4 1.3 48.7-9.6c20.1-16.6 30.8-43.2 29.2-69c1.2-22.9-6.9-46.3-23.1-62.8c-11.8-12.6-29.9-20.3-47.3-17.1z"/>
		<path id="Layer" class="s0" d="m620 733q62.5 0 125 0q-0.1 18.2 0 36.3c-14.8-0.1-29.7 0.1-44.6-0.1c0.1 30 0 60 0 90c14.9-0.2 29.8-0.1 44.6-0.2c0 11.7-0.1 23.4 0 35.1c-34.1 0.1-68.2 0-102.3 0.1c-6.2 0-12.8 0.1-18.1-3.6c-4.1-5.9-4.3-13.4-4.6-20.4c0-45.7 0.1-91.5 0-137.2z"/>
		<path id="Layer" class="s0" d="m764.9 733c41.9 0.2 83.8-0.5 125.7 0.4c0.2 12-0.1 23.9-0.9 35.9c-14.5-0.1-29 0-43.4-0.1c-0.2 6.8-0.2 13.6-0.8 20.4c-0.8 22.5 1.9 45.4-1.1 67.9c14.9 3 30.3 1.1 45.5 1.6c-0.1 11.6-0.4 23.2 0.7 34.8c-34 0.5-68 0-102 0.3c-6.5-0.2-14 0.6-19.1-4.4c-4.8-6.4-4.4-14.9-4.6-22.4c0.1-44.8 0-89.6 0-134.4z"/>
		<path id="Layer" class="s0" d="m954.1 733q62.5 0 124.9 0c-0.1 77.6 0 155.3-0.1 232.9c0.2 22.5-10 45.8-29.4 58.2c-30.8 20.5-69.4 26.2-105.7 22.1c-6-0.9-12.4-2.5-17-6.8c-5.3-6.7-4-17.3 2.3-23c7.7-7.5 18.9-8.8 28.6-12.5c16.7-5.6 33.7-14.9 41.2-31.8c0-67.5 0-135.1 0-202.6c-14.9-0.3-29.8-0.2-44.7-0.2c-0.1-12.1 0-24.2-0.1-36.3z"/>
		<path id="Layer" class="s0" d="m1105.6 733.7c27 0.3 53.9-0.1 80.9 0.3c-0.2 99.1 0 198.2-0.1 297.4c-0.1 11.8-4.8 23.8-14.1 31.4c-14.5 13.2-39 13-53.1-0.6c-9.6-8.3-13.9-21.2-13.6-33.6c0-98.3 0-196.6 0-294.9z"/>
		<path id="Layer" class="s0" d="m617.9 923c91.7 0.2 183.3 0.2 275 0c-0.1 11.8-0.1 23.6-0.1 35.3c-32.3 0-64.6 0-96.9 0c-0.1 25.3 0.5 50.6-0.2 75.9c-0.6 19.3-16.7 36.5-35.9 38.1c-22 3.2-44.8-15.2-44.8-37.8c-0.1-25.4 0-50.8 0.1-76.2c-32.4 0.1-64.7-0.1-97.1 0.1c-0.1-11.8 0-23.6-0.1-35.4z"/>
	</g>
	<g id="#da0000ff">
		<path id="Layer" fill-rule="evenodd" class="s1" d="m565.4 35.4c82.5-33.3 174.1-42.9 261.9-29.4c96.7 14.8 189 59.3 258.8 128.1c84.5 80.9 133.8 195.9 137.4 312.6c68.2 10.1 134.2 40.1 183.8 88.5c31.8 30.9 56.1 69.5 70.5 111.5l1 1.8c9.2 27.3 15.2 55.6 18.3 84.3c1.4 23.9 5 48 1.7 72c-7.1 121.6-51.4 239.5-118.7 340.4c-56.6 85.8-131.6 159.4-219.1 213.5c-60.7 37.9-127.4 66.2-196.6 84.2q-6.1 1.5-12.2 2.9l-1.7 1c-8.4 1.4-16.6 3.4-25.1 4.8l-1.9 1.1c-25.8 4.6-51.7 8.4-77.7 11.9c-53.6 4.7-107.6 6.1-161.3 2.1c-32.2-1.3-64-6.2-95.9-11.1c-56.7-10.8-112.7-26.3-165.6-49.6c-70.8-30.9-136.6-73.3-193.7-125.4c-80.9-75.4-145-169.2-184.2-272.8c-27.3-72.4-43.9-149.4-44.7-226.9c0.6-69.1 15-140.2 53.5-198.6c48.9-75.6 134.3-122.6 222.2-135.5c2.9-65.8 18.6-131.3 48.4-190.2c49.4-100.1 137.4-180 240.9-221.2zm113.5 7.4c-97.6 14.8-188.9 64.2-255.9 136.4c-73.2 77.8-114.9 183.3-118.6 289.7c-63.2 7.4-125.3 32.4-172.9 75.2c-45.6 40.3-74.2 97.1-85.6 156.3c-6.3 36.1-9.9 73.1-5.4 109.5c1.9 37.8 10 75.1 20 111.5c30.7 107.6 88.4 206.9 164.2 289.1c104 113.2 247.7 188.4 399.5 211.8c130.1 20.1 266.3 10 389.5-38c114.3-44 215.8-119.3 292.6-214.6c70.2-87.9 122.9-191.3 145.4-301.9c8.3-43.4 12.8-88 7.6-132c-5.6-61.4-27.7-122.4-68.7-169.1c-48.9-56.5-121.4-89.2-194.9-97.7c-1.2-21.5-3.3-43.1-6.8-64.4c-5.6-30.3-13.8-60.1-25.2-88.8c-35.3-89.5-101.7-165.8-183.8-215.5c-62.2-37.6-133.9-58.5-206.2-62.4c-31.7-2.9-63.5 1.1-94.8 4.9z"/>
		<path id="Layer" fill-rule="evenodd" class="s1" d="m660.4 177.8c69.3-20.8 145.7-16.9 212.1 12c64.9 27.6 119.2 78.9 151.2 141.7c40.2 77.8 44 172.5 12.1 253.8c37.1 0 74.3 0.4 111.4-0.2c59.4-1.5 122 20.9 159.4 68.6c31 39.2 42.3 90.1 43.9 139c-1.4 36-7.2 71.9-19.6 105.7c-19.9 56.8-53.2 107.9-91.7 153.7c-68.9 82.4-155.1 151.3-254.3 193.4c-76.7 32.8-160.6 48.2-243.8 46.8c-11.9-0.1-23.9 0.3-35.6-1.8c-64.2-3.3-127.5-18.5-186.9-42.8c-97.6-40.4-183.9-105.8-252.8-185.5c-53.5-61.4-98.1-133.9-112.7-215.1c-10.2-61.4-1.6-127.7 31.6-181.1c33.4-52.3 96.1-79.6 156.8-80.9c41 0.6 82 0.1 123 0.4c-23.6-58.8-28.6-124.9-13.4-186.5c24-100.5 101.9-186.5 200.5-218.3c2.9-0.9 5.9-1.9 8.8-2.9zm29.6 2.8c-8.8 2.2-17.6 4.3-26.3 6.9c-94.7 27.7-172 106.4-199.1 201.2c-20.2 67.9-14.2 142.7 15.2 207.1c-41.3-0.2-82.7 0.2-124-0.2c-52.3-3.2-107.3 14.4-144.2 52.6c-34.2 36.3-48.9 86.8-52 135.6c-4.3 76.9 26.5 151.1 69 213.6c51.4 73.7 116.8 137.8 192 186.9c77.3 50.5 166 84 257.9 93.9c102.9 11.6 209.3-1.6 304.6-43.2c106.9-46 198.2-123.4 268.7-215.2c29.8-39.1 54.8-82.3 70.9-128.9c18.9-54.4 23.4-114.5 6.8-170.1c-9.3-29.3-24.2-57.5-47.1-78.4c-37.5-35.2-90.8-50.1-141.4-46.8c-40.4 0.3-80.7 0-121.1 0.2c40-85 35.5-188.8-11.1-270.2c-37.1-66-100.4-117-173.2-138.1l-1.9-1c-46.6-13.2-96.1-15.5-143.7-5.9z"/>
		<path id="Layer" fill-rule="evenodd" class="s1" d="m738.4 210.9c21.4-10.5 46.8-9.5 69.4-3.6c25.5 6.8 46.2 24.1 64.3 42.5c41.5 40.7 75.8 90.6 90.6 147.4c6.1 23 7.9 46.8 7.6 70.5c-0.6 12.3 11.3 19 16.2 28.9c12.2 19.3 8.2 46.3-7.6 62.4c-8.2 9.2-20.1 13.2-31.5 16.3c-6.8 1.3-10.4 7.6-13.9 12.8c-30.4 47.1-77 85.4-132 99.2c-27.5 7.6-56.4 7-84.6 4.5c-52.6-9.2-100.6-41-128.7-86.5c-11.8-17-14.7-39-29.2-54.4c-19.2-21.1-27.7-49.5-30.3-77.4c-0.4-31.9 4.6-64.3 18.4-93.3c10.8-22.6 23.5-44.5 40.4-63.2c6.5-7.9 0-17.5-1.7-25.9c-5.5-18.1 1.8-37.7 14.5-50.9c14.5-16.9 37.2-27.6 59.6-24.2c17.9 3.8 35.2 13.9 54.1 11.1c9-3.9 15.5-12 24.4-16.2zm29.2 89.1c-6.8 5-8.3 14.9-4.2 22c6.7 6.6 16.6 3.8 24.9 4.2c-8.1 10.9-19.4 18.6-31.9 23.3c-22.2-0.4-42-12.1-60-23.9c-21.2 19.4-53 20.7-79.2 12.3c-12.8 13.3-24 28.2-32.9 44.4c-15.1 27.8-27.3 59-24.5 91.3c1.7 28.5 10.3 57.9 30 79.3c6.6 7.5 15.2 12.9 21.6 20.6c7.9 9.8 3.7 25.1 14.2 33.3c30.4 27.7 67.6 50.4 109.2 55.2c40.8 0.7 85-5.8 117.1-33c10.8-7.9 6.3-22 8.5-33.2c3.4-7.2 10.9-10.8 16.8-15.8c13-10.4 20.1-25.9 25.5-41.2c1.3-2.8 1.6-7.1 5.6-7.3c8.2-0.9 16.3 1.4 24.3 3c1.2 1.5 3.5 4.7 4.7 6.2c6.4 0 14.5 1.8 18.7-4.6c8.8-10.1 6.2-32.4-9.1-34.2c-6.5 2.8-10.2 9.8-15.7 14.2q-6.2 1.4-12.1 3.3c-10.3-6-2.3-18.8-6.2-27.8c-3-11.4-13.5-17.9-22.6-24.1c-8.5-5.6-12.8-15.2-16.8-24.2c8.3-9.3 21.6-4.9 32.5-5c4.9-17.9-6.3-34.2-20.3-44.1c6.1-17.8 6-38.7-5.1-54.6c-14.8-22.7-40-36.4-65.4-44c-15.5-4.6-34.3-6.4-47.6 4.4z"/>
		<path id="Layer" class="s1" d="m808.7 344.6c10.6-3.7 18.8-14.2 30.9-13.1c7.5-1.4 13.6 3.1 18.8 7.9c1.3 5.6 2.7 11.1 4 16.7c-10.8-0.1-22.9-3-32.3 3.8c-7.7 4.5-12.6 12.7-20.8 16.2c-6.7 1-16.2 3.1-20.4-3.9c-4.3-6.6-2.8-15.9 1.5-22.1c5.3-4 12.4-2.9 18.3-5.5z"/>
		<path id="Layer" class="s1" d="m638.9 352.8c11-1.7 26.1-2.9 32.1 8.8c4.5 6.7 0.8 14.6-0.5 21.6c-0.8-0.5-2.5-1.4-3.3-1.9c-5.4-8.2-14.6-14-24.6-13.2c-15.1 1.2-28.5 8.9-41.9 15.1c9.9-13 22.1-25.7 38.2-30.4z"/>
		<path id="Layer" class="s1" d="m601.5 392.1c8.4 10.6 16.8 21.9 29.3 27.8c9.6 5.6 21 4 31.5 3.5c-13.2 5-28.4 10.2-41.9 3.3c-12.4-6.9-16.7-21.5-18.9-34.6z"/>
		<path id="Layer" class="s1" d="m691 402.9c8.2 9.1 19.5 17.9 19.8 31.1c-0.3 9.4-11.6 10.3-17.6 14.9c5.7 6.7 12.1 12.7 19.1 17.8c-13.2-2.6-27.1-4.9-38.2-13.1c-5.4-2.9-5.4-10.8-2-15.2c7.1-4.2 15.5-5.4 22.9-9.1c0.1-9-2-17.7-4-26.4z"/>
		<path id="Layer" class="s1" d="m759.8 414.5c21.4-8 45.6 13.4 39.6 35.5c-3.6 21.6-32.4 31.3-48.9 17.4c-18.7-13.8-13-46.4 9.3-52.9z"/>
		<path id="Layer" fill-rule="evenodd" class="s1" d="m613 485c6-0.6 12.3-1.8 18.3-0.3c11.1 3.9 17.3 14.6 25.9 21.9c10.4 10.3 23.1 17.7 35.8 24.8c11.3 0.4 23.1 1.6 33.9-2.7c17.1-6.7 31.5-18.6 44.5-31.3c3.8-4.3 9.6-4.5 14.9-5c9 13.9 5 31 6.2 46.5c14.8-2.2 29-7.3 42.4-13.7c0.2 0.6 0.6 1.8 0.8 2.3c-11.1 8.6-24.3 14-38.1 16.4c-34.2 6.2-70.7 7.4-103.6-5.5c-21.7-8.2-39.9-23.5-54.5-41.2c-6.3-8.3-17-10-26.5-12.2zm135.1 51.6q6.1 0.3 12.2 0.6c3.4-5 6.2-10.3 8.7-15.9c-6.5 5.8-13.3 11.2-20.9 15.3z"/>
		<path id="Layer" class="s1" d="m623.9 570.3c3.8 2.6 7.7 5.3 11.5 8.1c2 8.8 4.2 19 13 23.7c17 11.3 38.6 6.3 55.6-2.2c-8.1 7.8-17 16-28.6 17.7c-15.8 2.1-33-4.9-42.7-17.6c-2.9-9.9-3.8-20.4-8.8-29.7z"/>
		<path id="Layer" fill-rule="evenodd" class="s1" d="m198.8 698.8c22.9-49.3 72.6-86.6 127.6-89q114.6 0 229.3 0c29.2 53.7 81.9 93.5 141.2 108c41.7 10.5 86.4 8.1 126.9-6.2c50.9-17.6 94.5-54.8 120.6-101.8c73.5 0 147 0.1 220.5-0.1c37.7-0.3 74.1 17.3 100.9 43.3c23.9 24.5 40.7 55.9 48.3 89.3c16.7 89.7-15.7 181.5-68.2 253.8c-67 92.5-157.4 168.2-261.3 216c-74.2 34.2-156 52.5-237.7 51.5c-95.7 0.8-190.8-25.3-274.5-71.1c-80.9-43.4-151.8-104.3-209.4-175.5c-42.1-52.7-73.4-115.1-83.4-182.2c-4.1-45.9-3-94.5 19.2-136zm146.3 53c-20.8 15.3-38.6 36.4-44.6 62c-4.4 21.6-2.2 44.9 8.8 64.2c18.8 34.4 55.3 56.1 92.8 64.4c0.2 21.4 0.1 42.9 0 64.3c-30.3-0.2-60.7 0.1-91-0.1c0 12.1 0 24.2-0.1 36.3c87.8-0.1 175.6-0.1 263.3 0c-0.1-12.1 0-24.2 0-36.3c-30.4 0.1-60.8 0-91.1 0c0-21.4 0-42.9 0-64.3c36.9-8 72.1-29.3 91.4-62.3c16.7-28.1 16.1-65.2-1.2-92.8c-20.3-32.8-56.3-53.3-93.4-60.9c-45.9-9.1-96.2-1.7-134.9 25.5zm274.9-18.8c0.1 45.7 0 91.5 0 137.2c0.3 7 0.5 14.5 4.6 20.4c5.3 3.7 11.9 3.6 18.1 3.6c34.1-0.1 68.2 0 102.3-0.1c-0.1-11.7 0-23.4 0-35.1c-14.8 0.1-29.7 0-44.6 0.2c0-30 0.1-60 0-90c14.9 0.2 29.8 0 44.6 0.1q-0.1-18.1 0-36.3q-62.5 0-125 0zm144.9 0c0 44.8 0.1 89.6 0 134.4c0.2 7.5-0.2 16 4.6 22.4c5.1 5 12.6 4.2 19.1 4.4c34-0.3 68 0.2 102-0.3c-1.1-11.6-0.8-23.2-0.7-34.8c-15.2-0.5-30.6 1.4-45.5-1.6c3-22.5 0.3-45.4 1.1-67.9c0.6-6.8 0.6-13.6 0.8-20.4c14.4 0.1 28.9 0 43.4 0.1c0.8-12 1.1-23.9 0.9-35.9c-41.9-0.9-83.8-0.2-125.7-0.4zm189.2 0c0.1 12.1 0 24.2 0.1 36.3c14.9 0 29.8-0.1 44.7 0.2c0 67.5 0 135.1 0 202.6c-7.5 16.9-24.5 26.2-41.2 31.8c-9.7 3.7-20.9 5-28.6 12.5c-6.3 5.7-7.6 16.3-2.3 23c4.6 4.3 11 5.9 17 6.8c36.3 4.1 74.9-1.6 105.7-22.1c19.4-12.4 29.6-35.7 29.4-58.2c0.1-77.6 0-155.3 0.1-232.9q-62.4 0-124.9 0zm151.5 0.7c0 98.3 0 196.6 0 294.9c-0.3 12.4 4 25.3 13.6 33.6c14.1 13.6 38.6 13.8 53.1 0.6c9.3-7.6 14-19.6 14.1-31.4c0.1-99.2-0.1-198.3 0.1-297.4c-27-0.4-53.9 0-80.9-0.3zm-487.7 189.3c0.1 11.8 0 23.6 0.1 35.4c32.4-0.2 64.7 0 97.1-0.1c-0.1 25.4-0.2 50.8-0.1 76.2c0 22.6 22.8 41 44.8 37.8c19.2-1.6 35.3-18.8 35.9-38.1c0.7-25.3 0.1-50.6 0.2-75.9c32.3 0 64.6 0 96.9 0c0-11.7 0-23.5 0.1-35.3c-91.7 0.2-183.3 0.2-275 0z"/>
		<path id="Layer" class="s1" d="m434.3 754.5c17.4-3.2 35.5 4.5 47.3 17.1c16.2 16.5 24.3 39.9 23.1 62.8c1.6 25.8-9.1 52.4-29.2 69c-13.3 10.9-32.1 15.5-48.7 9.6c-21.4-7.5-36.3-27.3-42.7-48.5c-7.8-24.3-5.6-51.4 5.8-74.2c8.9-17.4 24.7-32.2 44.4-35.8z"/>
		<path id="Layer" fill-rule="evenodd" class="s1" d="m1282.6 1325.8c11.6-5.7 25.1-4.8 37.7-3.6c26.5 5.4 46.1 31.2 45.8 58c0.6 31-26.4 59.9-57.8 59.1c-32.1 2.6-61.8-26.9-60.6-58.8c-1-23.2 13.8-45.5 34.9-54.7zm-23.1 51.9c-2.6 26.6 21.9 52.3 48.8 50.1c21.2 0.7 38.5-16.3 45.4-35.2c5.3-24.6-9.2-52.1-34.1-58.6c-27.9-9.4-59.9 14.5-60.1 43.7z"/>
		<path id="Layer" fill-rule="evenodd" class="s1" d="m1281.8 1343.6c13.8 0.5 27.8-1.4 41.5 1c15.5 4.1 18.5 26.8 5.9 35.8c2.3 3.7 4.6 7.5 6.8 11.3q-0.4 11.4 1 22.9c-5.1-0.1-10.3-0.2-15.4-0.2c-0.6-8.9-1.5-17.8-3.2-26.5c-7.6-0.8-15.3-0.9-22.9-0.8c0.1 9.1 0.1 18.2 0 27.4q-6.9-0.1-13.8-0.1c0-23.6-0.3-47.2 0.1-70.8zm13.7 12.5q0 9.1-0.1 18.3c8.7-0.8 19.6 3.1 26.4-4.1c0.3-3.7 0.2-7.5-1-11c-7.6-4.8-16.8-2.9-25.3-3.2z"/>
	</g>
</svg>