<?xml version="1.0" encoding="UTF-8"?>
<svg id="Capa_1" xmlns="http://www.w3.org/2000/svg" version="1.1" viewBox="0 0 792 612">
  <!-- Generator: Adobe Illustrator 29.8.2, SVG Export Plug-In . SVG Version: 2.1.1 Build 3)  -->
  <defs>
    <style>
      .st0 {
        fill: #e52b12;
      }

      .st1 {
        fill: #2c2320;
      }

      .st2 {
        fill: #241b19;
      }

      .st3 {
        fill: #79bc2b;
      }
    </style>
  </defs>
  <path class="st2" d="M203.04,263.29c6.11-16.16,17.89-25.44,32.55-31.4,19.18-7.8,39.34-7.8,59.56-6.37,7.15.5,14.21,1.81,21.09,3.85,15.07,4.48,27.85,12.32,36.71,25.86,1.57-1.58.78-3.13.79-4.48.08-11.33.16-22.66.03-33.99-.14-11.89,5.21-20.76,14.75-27.29,18.93-12.93,47.42-9.35,60.85,7.5,4.4,5.53,6.72,11.71,6.64,18.87-.14,12.09-.04,24.18-.04,36.41.72-.23,1.12-.23,1.26-.42,17.18-22.8,40.94-28,67.6-25.08,3.51.39,4.25-.38,4.08-3.66-.25-4.82-.16-9.66-.05-14.49.16-7.24-.22-13.63-5.45-20.1-7.89-9.78-6-25.17,2.2-34.69,8.37-9.72,23.16-12.75,35.72-7.33,4.79,2.07,9,5.03,12.85,8.5,20.38,18.32,31.65,41.14,33.75,68.49.73,9.57,1.55,19.13,2.36,29.15,23.52-27.11,54.59-28.83,86.66-27.03,8.99.51,17.81,2.28,26.37,5.23,22.45,7.75,36.38,23.22,41.72,46.31,3.96,17.13,3.99,34.34.21,51.52-5.56,25.25-21.25,40.85-45.98,47.32-23.63,6.18-47.51,6.2-71.24.69-20.44-4.75-32.35-14-43.5-32.31-1.61,1.08-1.94,2.98-2.81,4.5-8.01,13.86-20.19,22.43-35.2,26.95-20.61,6.2-41.65,7.34-62.72,2.83-19.67-4.21-35.59-14.51-46.91-31.49-1.76.84-.91,2.37-.87,3.45.38,10.62-4.43,18.45-13.51,23.26-17.67,9.35-35.87,9.37-53.77.83-9.44-4.5-15.33-12.12-14.92-23.33-.38-.03-.87-.18-.96-.05-11.36,16.18-27.65,24.07-46.56,27.05-21.4,3.37-42.8,3.52-63.94-2.12-15.98-4.26-29.33-12.29-38.09-27.41-6.42,11.03-14.85,19.55-26.14,24.94-14.09,6.73-28.98,8.47-44.32,6.49-3.67-.47-5.43-.29-5.05,4.13.42,4.96.17,9.99.08,14.99-.12,6.75.18,12.65,5.2,18.71,8.01,9.68,6.28,25.05-1.88,34.69-8.37,9.9-23,13.06-35.59,7.69-4.16-1.78-7.96-4.16-11.39-7.11-20.78-17.84-32.37-40.33-35.34-67.64-3.46-31.74-3.61-63.58-2.6-95.36,1.05-32.95,18.54-54.98,54-61.95,20.46-4.02,41.04-4.49,61.22,2.23,16.73,5.57,29.88,15.77,39.29,30.73.32.51.67,1,1.28,1.93ZM75.55,259.43l-.1.11c-1.18-.17-1.34.63-1.41,1.51v-.02c-1.99.27-3.36.98-2.35,3.37l-.21.29c-2.46-.52-2.56,1.69-3.25,2.99-4.48,8.36-6.07,17.56-6.07,26.8.01,18.21-.85,36.43.72,54.65.66,7.63,3.29,14.43,5.94,21.36.41,1.08,1.31,1.42,2.4,1.36l-.03-.04c-.11.99.08,1.81,1.23,2.05,9.51,14.3,21.89,24.73,39.24,29.34,0-8.3,0-16.1,0-23.9s0-15.56,0-23.39c2.57-.01,4.2,1.28,6.01,2.02,12.23,4.99,24.62,7.62,38.01,5.11,18.31-3.43,31.26-13.05,37.05-30.89,4.77-14.71,5.28-29.78,1.64-45-2.47-10.35-7.39-19.46-14.55-26.86-6.95-7.18-16.14-11.53-25.8-14.5-.93-2.58-3.35-2.32-5.36-2.75-10.8-2.27-21.6-2.18-32.62-1.2-11.99,1.06-23.12,4.08-33.56,9.94-1.42.8-2.49,1.65-2.4,3.42-1.06.93-2.11,1.86-3.17,2.79-.85.12-1.58.35-1.36,1.46ZM525.89,251.04c-2.76-.08-4.69-1.53-6.76-2.44-9.8-4.28-19.96-6.1-30.67-5.46-24.74,1.49-40.42,14.85-45.74,39.12-1.91,8.71-2.45,17.52-1.51,26.33,2.47,23.36,13.5,40.85,35.77,49.98,7.92,3.25,16.22,5.24,24.96,5.33,14.73.14,29.34-.42,43.29-5.77,6.56-2.51,13.24-5.53,17.54-11.05,5.96-7.66,9.56-16.7,10.29-26.58,1.45-19.64,1-39.28.14-58.93-1.11-25.56-14.74-42.69-36.67-54.12-3.2-1.66-6.58-3.08-10.63-3.5v47.1ZM662.08,363.18c11.71.12,23.26-.88,34.57-4.19,18.46-5.41,28.94-17.81,32.39-36.46,1.86-10.04,1.61-20.09,1.06-30.28-1.28-23.5-13.66-40.22-36.28-46.31-21.14-5.69-42.53-5.42-63.63.19-19.77,5.26-31.42,18.54-35.08,38.66-2.13,11.72-2.11,23.49-.32,35.29,3.27,21.53,15.63,34.63,36.57,39.92,10.08,2.55,20.35,3.31,30.71,3.18ZM277.8,363.42c10.47-.29,19.61-.61,28.64-2.46,24.85-5.11,38.1-19.77,40.67-44.98.81-7.97.35-15.88-.02-23.87-1.03-22.62-13.28-39.69-34.91-45.9-21.06-6.04-42.44-5.87-63.69-.62-9.76,2.41-18.18,7.35-24.72,15.15-2.95,3.53-5.97,7.6-3.04,12.09,2.71,4.15,7.65,2.36,11.47,1.65,10.35-1.92,20.67-3.85,31.19-4.43,9.33-.51,18.68-.81,27.59,2.87,7.44,3.07,10.24,7.45,10.12,14.87-.04,2.72-.88,2.86-3.18,2.51-9.25-1.39-18.57-1.72-27.91-1.38-12.88.46-25.51,2.26-37.16,8.22-8.84,4.52-15.41,11.03-17.11,21.34-2.76,16.76,5.81,31.34,22.71,38.42,13.01,5.45,26.77,6.45,39.34,6.53ZM370.85,283.48h.04c0,21.98.16,43.97-.12,65.94-.06,5.14,1.9,8.35,6.2,10.25,11.89,5.27,23.9,5.26,35.8.03,4.34-1.91,6.28-5.2,6.26-10.27-.16-44.13-.15-88.26-.05-132.39.01-5.34-1.99-9.42-6.15-12.39-9.98-7.12-20.67-7.71-31.65-2.66-6.94,3.19-10.54,8.41-10.43,16.53.29,21.64.1,43.3.1,64.95ZM67.43,393.93c2.08,15.91,20.3,42.6,33.49,49.62,2.53,1.35,5.2,2.19,8.08,2.28,6.27.18,11.18-3.44,12.51-9.24,1.39-6.03-1.22-10.96-7.37-13.5-3.53-1.45-7.23-2.48-10.77-3.9-13.77-5.51-25.7-13.74-35.93-25.27ZM569.9,211.47c-6.04-19.7-16.02-36.66-33.53-48.34-2.66-1.77-5.85-2.26-9.1-2.1-5.65.28-10.03,3.76-11.17,8.95-1.33,6.04.98,11,6.62,13.44,3.95,1.71,8.14,2.88,12.14,4.51,13.24,5.41,24.74,13.4,35.05,23.54Z"/>
  <path class="st1" d="M407.56,453.24c.7-2.17,1.5-3.66,1.63-5.21.4-4.57,3.84-3.57,6.23-3.1,3.47.68,1.18,3.55.6,4.69-3.74,7.29-3.75,13.65,4.62,18.55-6.95,1.63-7.48,1.66-11.75-2.2-1.62-1.46-2.28-.33-3.25.41-2.56,1.95-5.42,3.21-8.53,3.95-7.23,1.71-15.11-1.89-18.04-8.27-2.96-6.46-1.04-13.2,5.66-17.8,2.9-1.99,4.11-3.02,1.54-6.52-4.52-6.17-3.58-12.51,1.52-16.36,5.48-4.15,14.78-3.31,19.16,1.74,4.55,5.24,3.59,12.78-3.27,17.13-4.68,2.97-3.33,4.81-.52,7.62,1.39,1.39,2.52,3.06,4.41,5.39ZM394.13,463.76c2.08-.21,4.24-.94,6.39-1.87,2.81-1.21,3.43-2.51,1.11-4.97-2.37-2.52-4.36-5.4-6.57-8.07-.67-.81-.96-2.14-2.57-1.84-3.15.59-7.73,6.45-7.46,9.68.34,3.95,4.33,7.14,9.1,7.07ZM396.5,425.18c-2.86.49-5.79,1.24-5.56,4.93.2,3.17,1.72,6.22,4.54,7.69,1.78.92,6.91-5.02,6.78-7.57-.19-3.55-2.72-4.57-5.76-5.05Z"/>
  <path class="st1" d="M530.73,437.94c2.09-1.87,4.17-3.73,7.03-4.48,6.73-1.74,12.26,1.34,13.39,8.12,1.4,8.41.45,16.93.53,25.41.03,3.36-3.01,1.55-4.67,1.89-2.07.43-2.92-.55-2.88-2.77.13-5.99.07-11.98.03-17.97-.02-3.54.21-7.39-4.76-7.83-3.97-.34-7.02,2.93-7.2,7.87-.2,5.48-.18,10.98-.01,16.47.09,2.91-.21,4.45-3.89,4.42-3.52-.03-3.61-1.58-3.56-4.2.12-5.99.11-11.98,0-17.97-.06-3.32-.68-6.65-5.03-6.57-4.06.08-6.6,2.46-6.78,6.52-.27,6.15-.27,12.31-.09,18.46.08,2.85-.8,3.69-3.64,3.69-2.89,0-4.12-.53-4.03-3.82.24-8.65.08-17.3.08-25.96,0-4.87,2.8-6.71,7.1-4.27,1.08.61,1.33,1.07,2.62.43,7.41-3.71,10.34-3.18,15.75,2.53Z"/>
  <path class="st1" d="M253.13,444.86c0-6.66.09-13.33-.05-19.98-.05-2.32.53-3.21,3-3.18,8.99.12,17.99.18,26.98-.02,3.04-.07,2.95,1.41,3.04,3.62.1,2.51-.47,3.59-3.25,3.49-6.32-.23-12.66-.03-18.98-.25-2.61-.09-3.37.66-3.43,3.32-.24,9.97-.35,9.97,9.78,9.97,3,0,6,.05,8.99-.02,2.26-.05,4.17-.32,4.05,3.15-.1,2.95-.69,4.15-3.9,3.97-4.98-.27-10,.1-14.98-.14-2.98-.14-4.18.59-3.94,3.81.3,3.97-.05,7.99.11,11.98.12,2.86-.09,4.48-3.85,4.5-4.12.03-3.59-2.23-3.57-4.75.03-6.49.01-12.99.01-19.49Z"/>
  <path class="st1" d="M332.28,451.5c0-4.32-.07-8.65.04-12.97.03-1.35-.93-3.31,1.03-3.92,1.87-.58,5.02-1.08,5.66.19,1.64,3.29,2.94.91,4.23.25,10.18-5.19,19.5.34,19.66,11.77.09,6.32-.13,12.64.08,18.95.1,2.88-1.17,3.31-3.55,3.19-2.19-.11-4.29.39-4.13-3.14.26-5.64.13-11.3.05-16.95-.08-5.76-1.89-7.99-6.4-8.19-4.91-.22-8.81,2.92-9.08,7.89-.31,5.64-.3,11.31-.06,16.95.14,3.15-1.28,3.45-3.83,3.48-2.66.03-3.94-.49-3.77-3.55.26-4.64.07-9.31.07-13.96Z"/>
  <path class="st1" d="M495.88,451.96c0,4.17.1,8.33-.06,12.49-.06,1.47,1.16,3.71-1.14,4.28-1.82.45-4.59,1.15-5.61-.44-1.36-2.12-2.05-1.1-3.36-.41-11.07,5.83-20.28.44-20.46-11.98-.09-6,.15-12-.09-17.99-.12-2.99,1.01-3.6,3.73-3.63,2.88-.03,4.21.5,4.04,3.82-.29,5.65-.14,11.33-.06,16.99.08,5.42,1.92,7.68,6.23,7.91,4.82.26,8.75-2.51,9.13-7.25.47-5.79.44-11.65.26-17.47-.09-3.01.65-4,3.83-4.04,3.46-.04,3.73,1.5,3.62,4.23-.18,4.49-.05,8.99-.05,13.49Z"/>
  <path class="st1" d="M423.13,422.29c6.21-1.88,9.76.17,12.29,5.55,2.22,4.72,5.44,8.96,8.53,13.91,3.17-4.99,6.51-9.33,8.86-14.15,2.63-5.4,6.38-6.98,12.31-5.41-4.48,7.07-8.63,14.18-13.35,20.88-3.03,4.3-4.54,8.65-3.99,13.87.28,2.63-.11,5.33.09,7.97.22,2.83-.34,4.14-3.68,4.14-3.36,0-4.54-1.03-4.01-4.25,1.83-11.03-1.89-20.35-8.49-28.99-3.2-4.19-5.68-8.92-8.56-13.53Z"/>
  <path class="st2" d="M322.13,451.61c0,4.49.08,8.98-.05,13.46-.04,1.28,1.03,3.4-1.2,3.7-1.83.24-4.81,1.16-5.46-.55-1.01-2.63-1.61-1.36-2.88-.61-10.8,6.39-20.59.83-20.68-11.73-.05-6.15.14-12.31-.07-18.45-.1-3.01,1.46-3.1,3.69-3.09,2.21,0,3.82.04,3.71,3.07-.21,5.64-.1,11.3-.05,16.95.06,5.94,2.07,8.51,6.61,8.65,5.15.16,8.93-3.09,9.17-8.41.25-5.64.28-11.31.02-16.95-.16-3.3,1.51-3.27,3.92-3.35,2.56-.08,3.54.63,3.41,3.33-.21,4.64-.06,9.31-.06,13.96-.03,0-.05,0-.08,0Z"/>
  <path class="st0" d="M67.43,393.93c10.23,11.54,22.16,19.76,35.93,25.27,3.54,1.42,7.25,2.44,10.77,3.9,6.16,2.54,8.76,7.46,7.37,13.5-1.33,5.79-6.24,9.42-12.51,9.24-2.88-.08-5.55-.93-8.08-2.28-13.19-7.02-31.41-33.71-33.49-49.62Z"/>
  <path class="st3" d="M569.9,211.47c-10.3-10.14-21.8-18.14-35.05-23.54-3.99-1.63-8.18-2.8-12.14-4.51-5.64-2.44-7.94-7.4-6.62-13.44,1.14-5.19,5.52-8.67,11.17-8.95,3.25-.16,6.44.33,9.1,2.1,17.51,11.68,27.49,28.63,33.53,48.34Z"/>
  <path class="st1" d="M71.47,264.68c-5.35,9.32-7.49,19.46-7.53,30.09-.06,14.29.09,28.58.04,42.87-.04,11.93,1.55,23.49,7.24,34.2-1.09.06-1.98-.27-2.4-1.36-2.65-6.93-5.28-13.72-5.94-21.36-1.57-18.22-.71-36.44-.72-54.65,0-9.24,1.59-18.44,6.07-26.8.69-1.29.79-3.51,3.25-2.99Z"/>
  <path class="st1" d="M154.01,245.79c-17.58-4.16-35.14-3.66-52.7.13-7.71,1.66-14.69,4.96-21.23,9.27-.09-1.77.97-2.62,2.4-3.42,10.44-5.86,21.57-8.87,33.56-9.94,11.01-.98,21.81-1.06,32.62,1.2,2.01.42,4.43.17,5.36,2.75Z"/>
  <path class="st1" d="M74.05,261.03c-.79,1.12-1.57,2.24-2.36,3.37-1.01-2.38.36-3.1,2.36-3.37Z"/>
  <path class="st1" d="M71.19,371.79c.41.68.82,1.37,1.23,2.05-1.15-.24-1.33-1.06-1.23-2.05Z"/>
  <path class="st1" d="M75.44,259.54c-.47.5-.94,1-1.41,1.51.07-.87.23-1.67,1.41-1.51Z"/>
  <path class="st1" d="M76.91,257.97c-.45.49-.91.97-1.36,1.46-.22-1.12.52-1.34,1.36-1.46Z"/>
  <path class="st2" d="M526,302.99c-.36,8.2,1.03,16.5-3.4,24.3-3.66,6.45-9.29,8.12-15.84,8.23-6.72.11-12.51-1.98-15.85-8.36-.91-1.75-1.76-3.66-2.04-5.59-1.78-12.41-2.14-24.92.08-37.25,1.73-9.6,8.11-14.07,17.81-14.04,9.95.03,15.97,4.77,18.31,14.31.76,3.11.89,6.25.91,9.42.02,3,0,5.99,0,8.99Z"/>
  <path class="st2" d="M116.93,276.83c.39-.93,1.06-1.54,2.01-1.86,7-1.88,14.06-2.76,21.24-1.05.29-.01.56.05.81.19,1.64,4.09,5.38,6.88,6.27,11.61,1.32,6.98.29,13.91.76,20.85.47,6.86-.56,13.63-1.01,20.44-3.51,7.14-8.94,9.99-17.9,9.39-8.37-.56-13.69-4.35-15.97-11.83-2.75-9.06-1.32-18.43-1.6-27.66-.09-2.96.4-5.93.63-8.89,2.68-3.26,3.81-7.18,4.75-11.18Z"/>
  <path class="st1" d="M147.02,327.01c.45-6.81,1.47-13.59,1.01-20.44-.47-6.93.56-13.87-.76-20.85-.9-4.73-4.64-7.51-6.27-11.61,4.34,1.62,6.38,5.34,7.18,9.37,2.75,13.75,2.75,27.57-.08,41.35-.16.77-.71,1.46-1.08,2.18Z"/>
  <path class="st1" d="M140.18,273.92c-7.18-1.71-14.24-.83-21.24,1.05,6.46-4.68,14.95-5.1,21.24-1.05Z"/>
  <path class="st1" d="M116.93,276.83c-.94,4-2.06,7.92-4.75,11.18.39-4.23,1.56-8.13,4.75-11.18Z"/>
  <path class="st2" d="M651.82,273.55c13.52-7.38,27.25-1,28.95,13.94,1.2,10.56.89,21.25.02,31.85-.32,3.93-1.5,7.82-4.51,10.78-1.39.16-3.13-.04-2.38,2.32-.09.26-.27.39-.55.4-1.56-1.12-2.78.26-4.18.51-10.47,1.91-18.23.94-22.49-9.11-1.22-2.87-1.82-5.98-1.74-9.2.28-12.52-1.13-25.14,2.47-37.43,0,0,.19-.2.2-.2.24-.08.49-.15.73-.23-.08-.13-.16-.25-.24-.38.25-.25.5-.51.76-.76.13.02.27.03.4.05-.11-.04-.22-.07-.33-.11.3-.31.59-.63.89-.94.19,0,.38.02.57.02-.07-.11-.14-.22-.22-.34.04-.24.18-.38.42-.42.71.24,1.07-.09,1.22-.76Z"/>
  <path class="st1" d="M647.42,277.61c-3.6,12.3-2.19,24.92-2.47,37.43-.07,3.22.53,6.33,1.74,9.2,4.26,10.05,12.02,11.03,22.49,9.11,1.39-.25,2.62-1.63,4.18-.51-12.69,7.9-27.33,1.76-29.51-12.85-1.64-11.01-1.24-22.19-.07-33.28.35-3.3,1.38-6.49,3.64-9.1Z"/>
  <path class="st1" d="M673.91,332.44c-.76-2.36.98-2.16,2.38-2.32-.44,1.14-1.3,1.84-2.38,2.32Z"/>
  <path class="st1" d="M651.82,273.55c-.15.67-.51.99-1.22.76.41-.25.81-.51,1.22-.76Z"/>
  <path class="st1" d="M648.94,275.98c.11.04.22.07.33.11-.13-.01-.27-.03-.4-.05,0,0,.08-.06.08-.06Z"/>
  <path class="st1" d="M648.11,276.8c.08.13.16.25.24.38-.24.08-.48.15-.73.23.03-.31.2-.51.49-.61Z"/>
  <path class="st1" d="M650.19,274.73c.07.11.14.22.22.34-.19,0-.38-.02-.57-.02,0,0,.35-.31.35-.31Z"/>
  <path class="st2" d="M274,335.99c-8.25-1.73-11.68-5.62-11.63-13.18.05-7.46,3.72-11.9,11.49-13.28,6.42-1.14,12.92-1.18,19.27.57,5.63,1.55,8.67,5.76,8.93,11.77.31,7.08-1.91,10.7-8.05,13.16-6.68.15-13.41-.89-20.01.95Z"/>
  <path class="st1" d="M274,335.99c6.6-1.84,13.33-.8,20.01-.95-6.57,2.4-13.26,2.32-20.01.95Z"/>
</svg>