<?xml version="1.0" encoding="UTF-8"?>
<svg xmlns="http://www.w3.org/2000/svg" xmlns:xlink="http://www.w3.org/1999/xlink" width="300px" height="74px" viewBox="0 0 300 74" version="1.1">
<g id="surface1">
<path style=" stroke:none;fill-rule:nonzero;fill:rgb(19.607843%,19.607843%,19.607843%);fill-opacity:1;" d="M 150 44.335938 L 139.730469 44.335938 L 139.730469 51.679688 L 148.355469 51.679688 L 148.355469 56.1875 L 139.730469 56.1875 L 139.730469 67.648438 L 134.957031 67.648438 L 134.957031 39.824219 L 150 39.824219 Z M 161.808594 63.769531 C 163.59375 63.769531 165.105469 63.160156 166.304688 61.9375 C 167.5 60.71875 168.113281 59.183594 168.113281 57.351562 C 168.113281 55.519531 167.5 54.003906 166.304688 52.78125 C 165.105469 51.5625 163.59375 50.953125 161.808594 50.953125 C 160.019531 50.953125 158.507812 51.5625 157.289062 52.78125 C 156.054688 54.003906 155.445312 55.519531 155.445312 57.351562 C 155.445312 59.183594 156.054688 60.71875 157.289062 61.9375 C 158.507812 63.160156 160.019531 63.769531 161.808594 63.769531 M 153.96875 65.046875 C 151.871094 62.984375 150.828125 60.421875 150.828125 57.351562 C 150.828125 54.296875 151.871094 51.738281 153.96875 49.671875 C 156.054688 47.625 158.667969 46.601562 161.808594 46.601562 C 164.929688 46.601562 167.539062 47.625 169.644531 49.671875 C 171.746094 51.738281 172.785156 54.296875 172.785156 57.351562 C 172.785156 60.421875 171.746094 62.984375 169.644531 65.046875 C 167.539062 67.117188 164.933594 68.140625 161.808594 68.140625 C 158.667969 68.140625 156.054688 67.117188 153.96875 65.046875 M 185.382812 63.769531 C 187.171875 63.769531 188.683594 63.160156 189.878906 61.9375 C 191.078125 60.71875 191.6875 59.183594 191.6875 57.351562 C 191.6875 55.519531 191.078125 54.003906 189.878906 52.78125 C 188.683594 51.5625 187.171875 50.953125 185.382812 50.953125 C 183.59375 50.953125 182.082031 51.5625 180.867188 52.78125 C 179.628906 54.003906 179.019531 55.519531 179.019531 57.351562 C 179.019531 59.183594 179.628906 60.71875 180.867188 61.9375 C 182.082031 63.160156 183.59375 63.769531 185.382812 63.769531 M 177.546875 65.046875 C 175.445312 62.984375 174.40625 60.421875 174.40625 57.351562 C 174.40625 54.296875 175.445312 51.738281 177.546875 49.671875 C 179.628906 47.625 182.242188 46.601562 185.382812 46.601562 C 188.507812 46.601562 191.117188 47.625 193.21875 49.671875 C 195.320312 51.738281 196.363281 54.296875 196.363281 57.351562 C 196.363281 60.421875 195.320312 62.984375 193.21875 65.046875 C 191.117188 67.117188 188.507812 68.140625 185.382812 68.140625 C 182.242188 68.140625 179.628906 67.117188 177.546875 65.046875 M 213.511719 61.9375 C 214.710938 60.71875 215.316406 59.183594 215.316406 57.351562 C 215.316406 55.519531 214.710938 54.003906 213.511719 52.78125 C 212.3125 51.5625 210.804688 50.949219 209.015625 50.949219 C 207.1875 50.949219 205.675781 51.5625 204.480469 52.78125 C 203.261719 54.003906 202.652344 55.519531 202.652344 57.351562 C 202.652344 59.183594 203.261719 60.71875 204.480469 61.9375 C 205.675781 63.160156 207.1875 63.769531 209.015625 63.769531 C 210.804688 63.769531 212.3125 63.160156 213.511719 61.9375 M 215.316406 38.605469 L 219.835938 38.605469 L 219.835938 67.648438 L 215.316406 67.648438 L 215.316406 64.457031 C 213.53125 66.902344 211.136719 68.121094 208.128906 68.140625 C 205.242188 68.140625 202.828125 67.117188 200.921875 65.050781 C 199 62.984375 198.035156 60.421875 198.035156 57.351562 C 198.035156 54.296875 199 51.738281 200.921875 49.671875 C 202.828125 47.625 205.242188 46.601562 208.128906 46.601562 C 211.136719 46.601562 213.53125 47.820312 215.316406 50.261719 Z M 224.867188 66.230469 C 223.488281 64.96875 222.804688 63.433594 222.804688 61.601562 L 227.378906 61.601562 C 227.378906 62.332031 227.65625 62.941406 228.183594 63.453125 C 228.71875 63.964844 229.386719 64.222656 230.148438 64.222656 C 230.875 64.222656 231.484375 64.003906 232.015625 63.59375 C 232.527344 63.179688 232.78125 62.648438 232.78125 62.039062 C 232.78125 60.757812 231.5625 59.792969 229.148438 59.140625 C 225.101562 58.117188 223.082031 56.011719 223.082031 52.800781 C 223.082031 50.890625 223.75 49.394531 225.101562 48.273438 C 226.4375 47.152344 228.089844 46.601562 230.03125 46.601562 C 232.054688 46.601562 233.722656 47.210938 235.082031 48.410156 C 236.414062 49.609375 237.082031 51.089844 237.082031 52.84375 L 232.488281 52.84375 C 232.488281 51.5625 231.464844 50.519531 229.992188 50.519531 C 228.71875 50.519531 227.65625 51.402344 227.65625 52.527344 C 227.65625 53.804688 228.890625 54.769531 231.367188 55.382812 C 235.355469 56.40625 237.355469 58.492188 237.355469 61.644531 C 237.355469 63.632812 236.671875 65.226562 235.292969 66.390625 C 233.898438 67.550781 232.171875 68.140625 230.109375 68.140625 C 227.988281 68.140625 226.242188 67.511719 224.867188 66.230469 M 143.046875 27.78125 C 140.195312 27.78125 137.816406 26.964844 135.910156 25.355469 C 133.984375 23.742188 133.019531 21.746094 133.019531 19.355469 L 140.15625 19.355469 C 140.15625 20.078125 140.453125 20.707031 141.023438 21.207031 C 141.59375 21.707031 142.320312 21.964844 143.164062 21.964844 C 143.933594 21.964844 144.601562 21.761719 145.152344 21.375 C 145.683594 20.984375 145.957031 20.503906 145.957031 19.929688 C 145.957031 18.6875 144.421875 17.707031 141.355469 16.964844 C 136.066406 15.6875 133.433594 12.894531 133.433594 8.617188 C 133.433594 6.375 134.335938 4.488281 136.167969 2.96875 C 137.992188 1.449219 140.273438 0.691406 143.007812 0.691406 C 145.78125 0.691406 148.078125 1.46875 149.929688 3.003906 C 151.757812 4.542969 152.679688 6.46875 152.679688 8.78125 L 145.582031 8.78125 C 145.582031 7.46875 144.484375 6.503906 142.96875 6.503906 C 141.574219 6.503906 140.511719 7.300781 140.511719 8.355469 C 140.511719 9.765625 142.007812 10.488281 144.777344 11.246094 C 147.078125 11.820312 148.710938 12.484375 150.441406 13.726562 C 152.148438 14.96875 153.074219 16.984375 153.074219 19.503906 C 153.074219 21.855469 152.113281 23.816406 150.203125 25.390625 C 148.277344 26.984375 145.898438 27.78125 143.046875 27.78125 M 166.527344 20.804688 L 166.527344 18.894531 L 163.691406 18.894531 C 162.34375 18.894531 161.335938 19.75 161.335938 20.882812 C 161.335938 22.015625 162.34375 22.929688 163.691406 22.929688 C 165.296875 22.929688 166.527344 21.996094 166.527344 20.804688 M 173.109375 27.285156 L 167.339844 27.285156 L 167.339844 25.492188 C 165.972656 27.023438 164.089844 27.777344 161.730469 27.777344 C 159.667969 27.777344 157.964844 27.144531 156.597656 25.851562 C 155.230469 24.578125 154.554688 22.992188 154.554688 21.0625 C 154.554688 19.171875 155.25 17.582031 156.617188 16.292969 C 157.984375 15.019531 159.6875 14.386719 161.730469 14.386719 L 166.527344 14.386719 L 166.527344 12.515625 L 156.101562 12.515625 L 156.101562 6.535156 L 173.109375 6.535156 Z M 209.136719 10.355469 L 209.136719 27.285156 L 202.578125 27.285156 L 202.578125 12.914062 L 196.074219 12.914062 L 196.074219 27.285156 L 189.496094 27.285156 L 189.496094 12.914062 L 182.953125 12.914062 L 182.953125 27.285156 L 176.394531 27.285156 L 176.394531 6.535156 L 205.324219 6.535156 C 207.429688 6.535156 209.136719 8.246094 209.136719 10.355469 M 226.210938 6.535156 L 233.542969 6.535156 L 222.226562 35.015625 L 213.664062 35.015625 L 213.664062 28.992188 L 217.605469 28.992188 L 218.460938 26.964844 L 210.332031 6.535156 L 217.804688 6.535156 L 222.027344 18.695312 Z M 245.347656 20.804688 L 245.347656 18.894531 L 242.515625 18.894531 C 241.167969 18.894531 240.15625 19.75 240.15625 20.882812 C 240.15625 22.015625 241.167969 22.929688 242.515625 22.929688 C 244.121094 22.929688 245.347656 21.996094 245.347656 20.804688 M 251.929688 27.285156 L 246.160156 27.285156 L 246.160156 25.492188 C 244.792969 27.023438 242.910156 27.777344 240.550781 27.777344 C 238.492188 27.777344 236.785156 27.144531 235.417969 25.851562 C 234.050781 24.578125 233.375 22.992188 233.375 21.0625 C 233.375 19.171875 234.070312 17.582031 235.4375 16.292969 C 236.804688 15.019531 238.511719 14.386719 240.550781 14.386719 L 245.347656 14.386719 L 245.347656 12.515625 L 234.921875 12.515625 L 234.921875 6.535156 L 251.929688 6.535156 Z M 275.550781 10.355469 L 275.550781 27.285156 L 268.96875 27.285156 L 268.96875 12.914062 L 261.777344 12.914062 L 261.777344 27.285156 L 255.214844 27.285156 L 255.214844 6.535156 L 271.738281 6.535156 C 273.84375 6.535156 275.550781 8.246094 275.550781 10.355469 M 292.230469 19.710938 C 293.082031 18.855469 293.496094 17.78125 293.496094 16.492188 C 293.496094 15.21875 293.082031 14.148438 292.25 13.292969 C 291.398438 12.4375 290.347656 12.019531 289.078125 12.019531 C 287.789062 12.019531 286.738281 12.4375 285.886719 13.292969 C 285.035156 14.144531 284.597656 15.21875 284.597656 16.492188 C 284.597656 17.785156 285.035156 18.855469 285.886719 19.710938 C 286.738281 20.585938 287.808594 21.023438 289.078125 21.023438 C 290.328125 21.023438 291.375 20.585938 292.230469 19.710938 M 293.496094 6.535156 L 300.078125 6.535156 L 300.078125 35.015625 L 279.898438 35.015625 L 279.898438 28.992188 L 293.496094 28.992188 L 293.496094 24.640625 C 291.953125 26.191406 290.03125 26.964844 287.730469 26.964844 C 284.914062 26.964844 282.578125 25.96875 280.691406 23.964844 C 278.8125 21.976562 277.859375 19.492188 277.859375 16.492188 C 277.859375 13.507812 278.8125 11.027344 280.691406 9.019531 C 282.578125 7.03125 284.914062 6.035156 287.730469 6.035156 C 290.03125 6.035156 291.953125 6.8125 293.496094 8.363281 Z M 293.496094 6.535156 "/>
<path style=" stroke:none;fill-rule:nonzero;fill:rgb(100%,39.215686%,0%);fill-opacity:1;" d="M 44.738281 37 C 44.738281 24.433594 50.988281 13.332031 60.542969 6.644531 L 0 6.644531 L 0 67.355469 L 60.542969 67.355469 C 50.988281 60.671875 44.738281 49.566406 44.738281 37 M 81.640625 0 C 73.792969 0 66.523438 2.457031 60.542969 6.644531 L 60.550781 6.644531 L 60.550781 67.355469 L 60.542969 67.355469 C 66.523438 71.542969 73.792969 74 81.640625 74 C 102.019531 74 118.539062 57.433594 118.539062 37 C 118.539062 16.566406 102.019531 0 81.640625 0 "/>
<path style=" stroke:none;fill-rule:nonzero;fill:rgb(100%,100%,100%);fill-opacity:1;" d="M 60.546875 6.644531 L 60.542969 6.644531 C 50.988281 13.332031 44.738281 24.433594 44.738281 37 C 44.738281 49.566406 50.988281 60.671875 60.542969 67.355469 L 60.546875 67.355469 Z M 60.546875 6.644531 "/>
</g>
</svg>
