<?xml version="1.0" encoding="utf-8"?>
<!-- Generator: Adobe Illustrator 28.1.0, SVG Export Plug-In . SVG Version: 6.00 Build 0)  -->
<svg version="1.1" id="Capa_1" xmlns="http://www.w3.org/2000/svg" xmlns:xlink="http://www.w3.org/1999/xlink" x="0px" y="0px"
	 viewBox="0 0 1200 675" style="enable-background:new 0 0 1200 675;" xml:space="preserve">
<style type="text/css">
	.st0{fill:#FFFFFF;}
	.st1{fill:#10913B;}
</style>
<g>
	<rect x="294.23" y="62.29" class="st0" width="594.11" height="519.86"/>
	<path class="st1" d="M294.23,62.29v117.17c0,0,52.81-52.81,138.63-57.76c85.82-4.95,222.79,47.86,318.51,47.86
		c52.88,0,103.25-31.74,137.74-60.14l-0.76-47.13H294.23z"/>
	<path class="st1" d="M293.27,589l-0.63-47.39c0,0,64.45-63.19,155.45-61.29c90.99,1.9,188.94,50.55,295.09,46.13
		c106.16-4.42,145.34-60.03,145.34-60.03l1.26,125.11L293.27,589z"/>
	<path class="st1" d="M299.59,497.38c0,0,55.61-61.93,161.13-60.66c105.53,1.26,220.53,51.18,283.72,49.29
		c63.19-1.9,111.21-21.48,138.38-67.61c0,0-40.44,41.07-122.59,36.02c-82.15-5.06-183.88-49.29-265.39-46.76
		C413.33,410.18,362.78,412.07,299.59,497.38z"/>
	<g>
		<path class="st1" d="M556.48,203.54h-30.76c-2.52,0-4.59,2.06-4.59,4.59v46.29h-26.54c-3.46,0-6.29,2.83-6.29,6.29v3.76
			c0,8.62,7.06,15.68,15.68,15.68h17.16v98.06c0,2.52,2.06,4.59,4.59,4.59h30.76c2.52,0,4.59-2.06,4.59-4.59V208.13
			C561.07,205.6,559.01,203.54,556.48,203.54z"/>
		<path class="st1" d="M821.68,311.81H615.5c-1.95,0-3.55,1.6-3.55,3.55v8.43c0,7.4,6.06,13.46,13.46,13.46h75.15
			c-0.47,0.67-0.76,1.49-0.76,2.37v37.86c0,2.28,1.86,4.14,4.14,4.14h29.88c2.28,0,4.14-1.86,4.14-4.14v-37.86
			c0-0.88-0.28-1.69-0.76-2.37h74.56c7.4,0,13.46-6.06,13.46-13.46v-8.43C825.23,313.4,823.63,311.81,821.68,311.81z"/>
		<path class="st1" d="M506.49,339.91c-44.67-27.98-54.25-69.62-56.29-87.01v-39.48c0-2.16-1.76-3.92-3.92-3.92h-33.59
			c-2.16,0-3.92,1.76-3.92,3.92v30.52l-0.42-0.2c0,0,0.85,58.97-56.85,95.11c0,0-4.65,2.75-0.42,6.76c4.23,4.02,6.34,7.4,10.36,7.4
			c4.02,0,43.54-16.06,66.79-52.21c0.16-0.24,0.29-0.47,0.45-0.71c0.37,0.59,0.72,1.16,1.11,1.77
			c23.25,36.14,62.77,52.21,66.79,52.21c4.02,0,6.13-3.38,10.36-7.4C511.14,342.66,506.49,339.91,506.49,339.91z"/>
		<path class="st1" d="M818.01,285.55c-2.13-1.18-53.32-0.47-69.9-49.53l-1.02-0.24h49.31c8.05,0,14.64-6.59,14.64-14.64v-5.92
			c0-3.17-2.6-5.77-5.77-5.77H631.62c-3.17,0-5.77,2.6-5.77,5.77v5.92c0,8.05,6.59,14.64,14.64,14.64h48.77l-1.02,0.24
			c-16.59,49.05-67.77,48.34-69.91,49.53c-2.13,1.18-0.95,4.98-0.95,4.98s8.29,8.29,11.61,10.66c3.32,2.37,8.53,2.13,8.53,2.13
			c37.91-0.71,80.57-39.81,80.57-39.81l-0.14-0.99h0.43l-0.14,0.99c0,0,42.65,39.1,80.57,39.81c0,0,5.21,0.24,8.53-2.13
			c3.32-2.37,11.61-10.66,11.61-10.66S820.14,286.74,818.01,285.55z"/>
	</g>
</g>
</svg>
