<?xml version="1.0" encoding="UTF-8"?>
<svg id="Capa_1" xmlns="http://www.w3.org/2000/svg" version="1.1" viewBox="0 0 792 612">
  <!-- Generator: Adobe Illustrator 29.8.2, SVG Export Plug-In . SVG Version: 2.1.1 Build 3)  -->
  <defs>
    <style>
      .st0 {
        fill: #ee9616;
      }

      .st1 {
        fill: #ee9716;
      }

      .st2 {
        fill: #00964a;
      }

      .st3 {
        fill: #251a17;
      }

      .st4 {
        fill: #e4151f;
      }

      .st5 {
        fill: #251b18;
      }

      .st6 {
        fill: #2b201d;
      }

      .st7 {
        fill: #0059a9;
      }

      .st8 {
        fill: #271c19;
      }

      .st9 {
        fill: #d82a28;
      }

      .st10 {
        fill: #261b18;
      }

      .st11 {
        fill: #fefefe;
      }
    </style>
  </defs>
  <path class="st7" d="M394.78,257.56c.9.63.56,1.59.56,2.41.02,22.22.03,44.43,0,66.65,0,.89.51,2.02-.67,2.66-7.19-1.87-13.81-5.16-20.56-8.14-1.06-.47-1.77-1.32-2.06-2.48-.7-9.08-.29-18.17-.28-27.26,0-7.96-.47-15.93.32-23.88.48-1.62,1.86-2.28,3.22-2.9,5.69-2.56,11.56-4.67,17.31-7.08.7-.3,1.44-.38,2.16.01Z"/>
  <g>
    <path class="st1" d="M343.55,379.11c-.77.96-1.84.59-2.79.58-22.08-.07-44.17-.16-66.25-.26-.82,0-1.77.36-2.4-.55-.7-.92-.47-1.92-.12-2.85,2.4-6.43,5.49-12.57,7.89-19.01.23-.61.75-.97,1.43-1.07,16.44.07,32.88.12,49.31.21,1.24,0,2.49.02,3.69.41,1.19.39,1.68,1.4,2.13,2.44,2.47,5.58,4.62,11.3,7.08,16.9.46,1.05.72,2.14.02,3.21Z"/>
    <path class="st7" d="M221.33,328.4c-.91-.62-.56-1.58-.56-2.39.08-22.15.18-44.31.3-66.46,0-.8-.39-1.78.63-2.33,1.44-.52,2.68.19,3.93.67,5.1,1.95,10.07,4.2,15.12,6.29,1.51.62,2.99,1.31,3.45,3.11.66,4.59.31,9.21.26,13.81-.15,12.45.33,24.9-.43,37.34-.29,1.14-1.01,1.97-2.06,2.46-6.24,2.94-12.74,5.27-19.2,7.66-.47.17-.97.02-1.44-.15Z"/>
    <path class="st2" d="M243.57,266.34c-7.29-3.04-14.58-6.09-21.86-9.13.07-1,.92-1.43,1.52-2.02,15.71-15.41,31.44-30.81,47.18-46.2.69-.67,1.22-1.6,2.34-1.71.84.57,1.52,1.3,1.88,2.26,2.34,6.42,5.39,12.57,7.61,19.04-.03,1.84-1.42,2.83-2.52,3.98-10.6,11.08-22.27,21.06-33.01,32-.85.87-1.67,1.91-3.12,1.78Z"/>
    <path class="st2" d="M372.87,320.03c6.36,2.5,12.44,5.69,18.98,7.78,1,.32,2.14.7,2.69,1.82-2.37,3.22-5.47,5.75-8.29,8.53-13.13,12.92-26.31,25.79-39.5,38.64-.93.91-1.59,2.3-3.21,2.32-1.35-4.53-3.57-8.71-5.26-13.11-1.11-2.9-2.26-5.77-3.4-8.66-.05-1.74,1.32-2.6,2.34-3.62,10.55-10.51,21.12-21.01,31.73-31.47,1.07-1.05,1.91-2.72,3.9-2.23Z"/>
    <path class="st4" d="M221.33,328.4c7.32-2.98,14.64-5.96,21.96-8.94,1.94-.15,2.81,1.42,3.91,2.52,7.84,7.84,15.68,15.68,23.41,23.62,2.62,2.69,5.79,4.73,8.26,7.56.84.96,2.3,1.7,1.67,3.41-.03,2.95-1.63,5.37-2.68,7.97-1.93,4.78-4.38,9.34-5.76,14.34-1.03.08-1.54-.72-2.14-1.32-15.89-15.87-31.78-31.75-47.66-47.64-.43-.43-.95-.83-.98-1.52Z"/>
    <path class="st9" d="M394.92,257.91c-7.29,2.99-14.59,5.97-21.88,8.96-1.98.29-2.83-1.34-3.92-2.43-7.5-7.49-14.98-15-22.4-22.57-2.54-2.59-5.32-4.89-7.98-7.33-1.54-1.41-3.28-2.75-3.79-4.98-.38-2.27.9-4.08,1.68-6.02,1.73-4.28,3.63-8.48,5.48-12.71.59-1.34.94-3.31,3.26-2.71.66.57,1.35,1.09,1.96,1.7,15.18,15.16,30.34,30.33,45.5,45.52.78.78,1.79,1.39,2.08,2.57Z"/>
    <path class="st0" d="M345.38,208.12c-1.34-.08-1.56,1.11-1.92,1.92-1.88,4.23-3.77,8.47-5.44,12.79-.87,2.24-2.69,4.19-2.35,6.85-1.22.83-2.62.66-3.97.66-14.89-.08-29.78-.1-44.67-.2-1.83-.01-3.76.28-5.33-1.1-2.99-7.25-5.98-14.5-8.98-21.75,1.11-.07,2.23-.21,3.34-.21,21.85.07,43.69.15,65.54.29,1.25,0,2.75-.64,3.76.77Z"/>
    <path class="st11" d="M281.71,229.03c16.52.07,33.04.14,49.56.21,1.48,0,2.98-.14,4.4.43,2.38,3.24,5.58,5.67,8.39,8.49,8.72,8.75,17.46,17.49,26.22,26.21.88.87,1.6,1.92,2.76,2.49-.06,17.72-.12,35.44-.18,53.16-5.69,5-10.89,10.51-16.3,15.8-7.28,7.12-14.46,14.34-21.68,21.52-16.66-.08-33.31-.17-49.97-.26-1.47,0-2.98.18-4.37-.52-2.57-3.22-5.77-5.82-8.67-8.71-9.52-9.48-19.05-18.94-28.58-28.4.09-17.7.18-35.41.27-53.11.21-.13.44-.24.61-.4,12.37-12.1,24.74-24.2,37.1-36.31.17-.17.29-.4.43-.6Z"/>
    <path class="st3" d="M351.08,311.01c-.24-1.88-1.01-2.96-3.18-3.23-1.36-.16-2.64-1.32-3.88-2.13-1.05-.69-2.13-1.26-3.27-1.77-1.13-.51-1.87-.28-2.56.66-.66.9-1.38,1.76-2.07,2.64-1.25,1.61-3.8,2.15-5.53,1.16-1.59-.91-2.13-2.85-1.1-4.43,3.07-4.71,6.45-9.19,10.49-13.12,2.08-2.02,3.89-2.33,5.23-1.03,1.63,1.58,1.69,3.95.04,6.08-.91,1.18-2.04,2.19-2.99,3.35-1.23,1.5-1.11,2,.89,2.43,2.25.48,4.25,1.42,6.13,2.66,1.14.76,1.68.69,1.86-.85.55-4.71,1.03-9.42,1.03-14.17,0-.75-.07-1.51.03-2.24.19-1.42,1.26-1.86,2.4-.98,1,.77,1.76,1.76,2.21,2.97.69,1.87,1.23,3.74,1.27,5.79.11,5.62-.06,11.22-1.02,16.77-2.21,2.15-4.2,2-5.98-.55Z"/>
    <path class="st5" d="M307.66,313.02c-2.29,2.9-5.29,4.91-8.54,6.51-4.47,2.2-9.13-.98-8.85-5.92.06-1.12.37-2.22.42-3.34.08-1.72.77-2.77,2.57-3.04,1.99-.3,2.8-1.92,3.6-3.48.9-1.75,3.14-3.65,2.39-5.19-.81-1.66-3.57-.48-5.47-.66-1.48-.14-3.03.12-4.12-1.25-.53-.67-.74-1.32.29-1.73,3.96-1.58,7.94-3.01,12.33-2.18,1.62.31,3.13.84,4.34,2.02,1.69,1.63,2.25,3.85,1.01,5.78-2.17,3.4-4.91,6.36-8.81,7.74-1.43.5-2.12.91-1.88,2.47.21,1.4-1.23,3.24.31,4.13,1.33.77,2.74-.74,4.09-1.3,1.61-.67,3.19-1.41,4.78-2.11,1.59-.56,2.14-.07,1.54,1.55Z"/>
    <path class="st5" d="M276.06,293.32c1.99-.1,4.01-.36,5.87.64.57.31,1.12.76,1.07,1.41-.06.77-.79.85-1.42.82-1.93-.1-3.88.57-5.79-.58-.89-.53-2.2-.31-3.29-.57-2.45-.59-4.37.15-5.89,2.12-.46.59-1.08,1.06-1.51,1.66-.92,1.28-2.24,1.12-3.36.75-5.12-1.7-5.68-4.25-1.82-8.08,3.36-3.34,6.85-6.54,10.83-9.15.83-.55,1.71-1.06,2.62-1.43,1.34-.55,2.78-.6,3.82.55,1.04,1.15.92,2.58.13,3.83-1.14,1.78-2.41,3.49-3.66,5.19-.44.6-1.07,1.06-1.51,1.66-.46.63-.38,1.16.56,1.18,1.12.02,2.24.01,3.37.02Z"/>
    <path class="st3" d="M317.47,310.26c.02,2.86.04,5.72.05,8.58,0,2.35-.58,3.02-2.67,3.09-2.57.09-4.28-1.02-4.32-3.02-.04-2.11.06-4.24.3-6.34.78-6.82.88-13.65.61-20.5-.09-2.3,1.5-3.34,3.51-2.16,1.28.75,2.43,1.77,2.58,3.45.51,5.64.39,11.27-.06,16.9Z"/>
    <path class="st10" d="M353.35,316.99c.59.2,1.19.38,1.76.62,3.59,1.52,4.3,3.63,2.38,7.02-3.2,5.64-10.96,6.75-15.49,2.14-1.22-1.25-1.83-2.67-1.59-4.68.63-5.31,3.4-8.65,8.34-10.37,4.01,1.48,4.42,2.72,1.97,6.02-.44.59-.83,1.22-1.27,1.81-.69.94-1.96,1.85-.92,3.19.6.77,1.6.56,2.38.1,1.49-.87.89-1.91.37-3.15-.96-2.28-.66-2.58,2.06-2.7Z"/>
    <path class="st8" d="M275.34,320.52c-.02,2.5-.06,5-.72,7.43-.6,2.2-3.11,3.62-5.25,2.95-1.24-.39-2.45-1.11-2.11-2.63,1.08-4.9.37-9.98,1.64-14.85.09-.36.2-.72.29-1.09.32-1.27.13-2.94,2.04-3.09,1.21-.09,3.08,1.58,3.33,3.12.34,2.08,1.04,4.12.81,6.28-.07.62-.02,1.25-.02,1.87Z"/>
    <path class="st6" d="M255.98,310.5s-.7-.02-1.44-.12c-.63-.09-1.47-.42-1.47-.95,0-.61.91-.73,1.48-.87,5.69-1.45,11.1-3.75,16.66-5.57,2.76-.91,5.57-1.35,8.44-1.53,1.35-.08,2.78-.08,3.9.93.55.5,1.22,1.04,1,1.86-.17.61-.82.93-1.45,1.06-8.39,1.77-16.51,4.85-25.2,5.19-.37.01-.75,0-1.92,0Z"/>
    <path class="st5" d="M334.5,265.02c-.03-1.43.45-1.43,1.4-1.41,1.31.02,1.94.95,2.55,1.92,1.12,1.79,2.24,3.59,3.4,5.35.18.27.59.38.9.56.06-.34.17-.67.17-1.01.04-1.87.05-3.74.1-5.6.01-.48.12-1.02.76-1.09.74-.07,1.25.34,1.26,1.03.05,3.61.13,7.22,0,10.82-.05,1.38-1.79,1.77-2.81.58-1.05-1.21-1.74-2.72-2.72-4-.93-1.22-1.07-3.1-2.9-3.61-.05,1.48-.1,2.96-.15,4.43-.03.87,0,1.75-.08,2.61-.05.5-.3.96-.93.88-.58-.07-.8-.51-.8-1.04,0-1.99-.03-3.99-.02-5.98-.04,0-.07-2.58-.12-4.47Z"/>
    <path class="st5" d="M356.4,272.09c.15-.76-1.31-2.08.71-2.16,1.5-.06,1.76.93,1.84,2.22.24,4.1-.56,4.98-4.73,4.95-3.54-.02-5.62-1.84-5.98-5.35-.15-1.48-.21-3,.22-4.46,1.05-3.6,6.39-5.17,9.22-2.71.53.46,1.25,1.11.76,1.85-.46.68-1.35.41-2.08.25-.12-.02-.21-.13-.32-.19-3.39-1.69-4.62-1.05-4.91,2.61-.07.87-.02,1.75.03,2.61.03.49.12,1.01.31,1.45.63,1.45,2.13,2.22,3.67,1.92,1.93-.37,1.04-1.93,1.26-3.01Z"/>
    <path class="st5" d="M285.79,269.36c0-.87.02-1.74,0-2.61q-.06-3.36,3.12-3.32c.5,0,.99.01,1.49.03,1.54.05,3.11.25,3.78,1.84.73,1.72.62,3.49-1.03,4.69-1.02.73-.8,1.33-.24,2.15.49.72.97,1.46,1.31,2.25.25.58,1.26,1.26.34,1.87-.89.59-1.95.39-2.6-.59-.62-.93-1.1-1.94-1.71-2.88-.38-.6-.63-1.64-1.44-1.48-.94.18-.42,1.2-.5,1.85-.1.73-.04,1.49-.08,2.23-.04.76-.53,1.07-1.23,1.05-.7-.02-1.19-.35-1.19-1.1-.01-1.99,0-3.98.02-5.96-.02,0-.03,0-.05,0Z"/>
    <path class="st5" d="M272.24,268.74c0-1.25.09-2.5-.02-3.74-.07-.75-.44-1.5.73-1.61.95-.09,1.82.05,1.9,1.22.08,1.12.04,2.24.04,3.37,0,1.5-.04,3,.04,4.49.07,1.45.85,2.28,2.38,2.32,1.66.05,2.6-.64,2.69-2.36.13-2.49.07-4.99.1-7.49.01-.78.13-1.55,1.17-1.51,1.05.04,1.08.84,1.08,1.6,0,2.5.07,5-.1,7.49-.12,1.82-.89,3.39-2.88,3.95-2.13.6-4.23.63-6.01-.89-1.18-1-1.01-2.48-1.03-3.85-.01-1,0-2,0-3-.04,0-.07,0-.11,0Z"/>
    <path class="st5" d="M331.57,275.54c.12.63-.2.94-.71,1.15-.51.2-.98.08-1.41-.21-.69-.46-.77-1.27-1.03-1.95-.47-1.21-1.21-1.73-2.53-1.74-1.39,0-2.44.28-2.91,1.75-.18.58-.46,1.16-.82,1.64-.31.41-.89.54-1.32.2-.22-.18-.39-.7-.29-.96.65-1.88,1.41-3.73,2.08-5.61.59-1.64,1.13-3.29,1.67-4.95.46-1.4,1.69-1.76,2.65-.7.4.45.68,1.05.91,1.62,1.14,2.9,2.24,5.82,3.35,8.73.13.35.26.7.37,1.02Z"/>
    <path class="st5" d="M263.61,276.76c-.28-.02-.91-.02-1.52-.15-.87-.18-1.79-.43-1.61-1.63.25-1.66,1.28-.52,1.97-.48,1.43.07,3.32.96,3.87-.99.47-1.63-1.44-2.09-2.54-2.78-3.08-1.92-4.03-3.52-3.14-5.53.79-1.78,4.15-2.7,6.72-1.84.23.08.54.19.62.37.14.32.22.72.17,1.06-.06.33-.27.7-.76.59-.96-.23-1.9-.59-2.93-.44-.69.1-1.21.46-1.39,1.08-.15.5.22.99.64,1.26.83.54,1.71,1,2.57,1.51,2.58,1.52,3.33,2.93,2.72,5.08-.57,2.03-2.09,2.9-5.39,2.89Z"/>
    <path class="st5" d="M307.72,275.73c-.23.87-.87.82-1.47.79-1.09-.05-1.4-.84-1.61-1.73-.33-1.37-1.13-2.04-2.63-2.09-1.61-.06-2.61.51-3.08,2.04-.07.24-.15.47-.24.7-.32.79-.94,1.26-1.73.91-.71-.31-.41-1.02-.22-1.61,1.18-3.5,3.02-6.77,3.67-10.47.21-1.21,1.35-.84,2.13-.61.78.23,1.03,1.05,1.29,1.72,1.2,3.12,2.36,6.25,3.53,9.38.13.34.25.69.36.97Z"/>
    <path class="st5" d="M314.63,263.44c.37,0,.75-.02,1.12,0,.84.07,1.94-.06,1.87,1.22-.09,1.61-1.16.71-1.9.6-.37-.05-.74-.13-1.11-.14-.77-.03-1.51.03-1.88.87-.41.93.27,1.41.87,1.81.93.62,1.97,1.06,2.9,1.67,1.89,1.23,2.64,2.7,2.21,4.3-.51,1.92-1.92,2.84-3.78,3.11-1.23.18-2.48.16-3.7-.15-.83-.21-1.3-.67-1.17-1.59.19-1.29.98-.62,1.63-.52,1.42.21,3.37,1.07,4.03-.57.83-2.04-1.47-2.44-2.74-3.27-.1-.07-.21-.13-.32-.19-2.34-1.4-3.11-2.84-2.57-4.81.45-1.65,1.83-2.37,4.54-2.34Z"/>
    <path class="st3" d="M317.47,310.26c.02-5.63.04-11.27.06-16.9,1.11.67.25,2.48,1.33,2.82.8.25,1.88-.42,2.84-.67,1.5-.39,2.96-.09,4.43.24,1.23.27,1.94,1.1,2.43,2.13.67,1.4.06,2.46-1.48,2.63-1.81.2-3.34-.44-4.9-1.4-3.59-2.22-3.54-2.12-3.8,1.94-.2,3.08.19,6.23-.91,9.22Z"/>
    <path class="st11" d="M353.35,316.99c-.47.12-.97.19-1.42.38-.82.33-1.26.82-.36,1.56.38.31.9.48,1.19.85,1.29,1.62.78,3.26-1.18,3.99-.82.3-1.63.55-2.52.47-2.34-.21-2.98-1.45-1.77-3.47.77-1.29,1.86-2.3,2.93-3.32,2.19-2.1,2.14-3.02-.23-4.96-.37-.3-.83-.51-1.24-.76.76-.29,1.83.4,2.33-.72,1.88,1.35,3.81,2.23,5.98.55.14,1.02-.18,1.54-1.33,1.67-3.57.41-3.57.46-2.38,3.76Z"/>
    <path class="st3" d="M361.22,292.83c2.24,0,4.15.79,5.73,2.33.66.64,1.03,1.45.58,2.37-.46.93-1.38,1.08-2.25.89-2.67-.6-4.66-2.25-6.3-4.35-.41-.53-.2-.93.39-1.05.6-.12,1.23-.12,1.85-.18Z"/>
    <path class="st11" d="M307.66,313.02c.15-1.17-.43-1.62-1.54-1.55.33-.82,1.2-.8,1.83-1.16.33-.19.7-.27,1.01.05.28.3.36.67.1,1-.45.57-.58,1.41-1.4,1.66Z"/>
    <path class="st11" d="M288.24,267.29c.06-1.11-.22-2.4,1.55-2.32,1.29.05,2.14.62,2.23,1.96.09,1.26-1.43,2.53-2.78,2.35-1.3-.17-.87-1.24-1-1.99Z"/>
    <path class="st11" d="M325.65,268.16c1.16.23.94,1.32,1.25,2.04.26.6-.16.9-.72.89-.66-.01-1.69.34-1.66-.77.02-.77.29-1.67,1.12-2.16Z"/>
    <path class="st11" d="M301.88,271.05c-.51-.08-1.22.11-1.4-.7-.16-.71.88-2.42,1.39-2.27.99.28.98,1.31,1.2,2.04.25.83-.54.88-1.19.93Z"/>
  </g>
</svg>