<?xml version="1.0" encoding="UTF-8"?>
<svg id="Capa_1" data-name="Capa 1" xmlns="http://www.w3.org/2000/svg" viewBox="0 0 1024.56 286.32">
  <defs>
    <style>
      .cls-1 {
        fill: #2ca6df;
        stroke-width: 0px;
      }
    </style>
  </defs>
  <path class="cls-1" d="M75.49,0l59.56,181.31L197.41,0h67.58l-81.91,253.6s-3.84,34.55-48.03,32.64c-44.19-1.9-44.19-.69-59.56-48.01L0,0h75.49Z"/>
  <path class="cls-1" d="M329.09,88.37v187.19s46.11,27.98,57.64-10.45V88.37h41.89s31.12,0,19.59-49.95h-183.21s-5.07,49.95,25.67,49.95h38.42Z"/>
  <path class="cls-1" d="M615.81,38.42h43.41l4.16,188.28s4.77,54.73-47.57,56.18c-52.34,1.45-48.99,2.52-48.99,2.52,0,0,35.08-10.98,38.92-52.13,3.84-41.15,0-104.8,0-104.8,0,0,0-47.78-49.95-47.78s-58.1,43.33-55.94,81.22c2.15,37.89,17.52,72.47,48.26,72.47s33.41-3.59,33.41-3.59c0,0,12.7,57.39-37.25,53.54-49.95-3.84-101.67-25.83-102.71-122.42-1.03-96.59,50.06-129.19,110.97-130.18,53.22-.99,60.9,22.06,60.9,22.06l2.38-15.37Z"/>
  <path class="cls-1" d="M680.92,41.03v220.77s-2.18,18.69,24.72,18.69h86.9s24.53,0,24.53-26.9c0,0,4.77-12.51-5.3-19.7h-75.04V38.42h-55.81"/>
  <path class="cls-1" d="M830.37,38.42v235.16s3.79,12.89,27.91,11.82,27.95-24.12,27.95-24.12v-83.2l92.35,102.41s34.45,15.37,45.97-26.9l-91.24-109.51,91.24-103.68-67.06-1.99-67.42,76.85-.79-76.85h-58.91Z"/>
</svg>