<?xml version="1.0" encoding="utf-8"?>
<!-- Generator: Adobe Illustrator 28.1.0, SVG Export Plug-In . SVG Version: 6.00 Build 0)  -->
<svg version="1.1" id="Capa_1" xmlns="http://www.w3.org/2000/svg" xmlns:xlink="http://www.w3.org/1999/xlink" x="0px" y="0px"
	 viewBox="0 0 1200 675" style="enable-background:new 0 0 1200 675;" xml:space="preserve">
<style type="text/css">
	.st0{fill:#80BB27;}
	.st1{fill:#588E33;}
	.st2{fill:#A0C520;}
	.st3{fill:#FFFFFF;}
</style>
<g>
	<path class="st0" d="M897.54,272.36h-4.45c-8.88,0-16.14,7.26-16.14,16.14v59.81h-83.4V288.5c0-8.88-7.26-16.14-16.14-16.14h-4.45
		c-8.88,0-16.14,7.26-16.14,16.14v170.26c0,8.88,7.26,16.14,16.14,16.14h4.45c8.88,0,16.14-7.26,16.14-16.14V378.1h83.4v80.66
		c0,8.88,7.26,16.14,16.14,16.14h4.45c8.88,0,16.14-7.26,16.14-16.14V288.5C913.68,279.62,906.42,272.36,897.54,272.36z"/>
	<path class="st0" d="M1003.04,322.25c-38.93,0-70.49,34.01-70.49,75.96c0,41.95,31.56,75.96,70.49,75.96s70.49-34.01,70.49-75.96
		C1073.54,356.25,1041.98,322.25,1003.04,322.25z M1003.04,449.83c-23.03,0-41.7-23.12-41.7-51.63c0-28.51,18.67-51.63,41.7-51.63
		s41.7,23.12,41.7,51.63C1044.74,426.72,1026.07,449.83,1003.04,449.83z"/>
	<path class="st0" d="M477.81,322.25c-38.93,0-70.49,34.01-70.49,75.96c0,41.95,31.56,75.96,70.49,75.96s70.49-34.01,70.49-75.96
		C548.3,356.25,516.74,322.25,477.81,322.25z M477.81,449.83c-23.03,0-41.7-23.12-41.7-51.63c0-28.51,18.67-51.63,41.7-51.63
		s41.7,23.12,41.7,51.63C519.51,426.72,500.84,449.83,477.81,449.83z"/>
	<path class="st0" d="M681.83,354.75c-3.32-10.49-13.62-30-44.17-29.28c-20.69,0.49-36.24,8.53-46.67,16.51v-5.59
		c0-7.65-6.26-13.9-13.9-13.9s-13.9,6.26-13.9,13.9v123.12c0,7.65,6.26,13.9,13.9,13.9s13.9-6.26,13.9-13.9v-85.4l0.99,1
		c0,0,11.91-24.82,31.77-24.82c19.86,0,29.79,19.86,29.79,19.86v85.39c0,8.19,6.7,14.89,14.89,14.89c8.19,0,14.89-6.7,14.89-14.89
		v-94.32C683.33,358.9,682.78,356.71,681.83,354.75z"/>
	<path class="st0" d="M390.12,423.75c-11.37-0.41-11.64,3.79-11.64,3.79s3.92,21.38-38.17,21.66
		c-47.23-0.27-40.33-44.12-40.33-44.12l90.14,0.14c0,0,9.75-1.33,8.17-21.79c-1.57-20.47-9.45-59.04-62.18-58.25
		c-52.74,0.79-68.48,43.29-68.48,68.48s3.94,76.35,70.84,78.71c0,0,60.69,2.87,59.82-44.87
		C398.29,427.5,398.78,424.03,390.12,423.75z M337.07,344.98c43.45-0.41,36.81,44.93,36.81,44.93l-70.24-0.54
		C302.96,341.87,337.07,344.98,337.07,344.98z"/>
	<path class="st1" d="M233.12,299.63c0,0,20.59-74.11,107.87-103.75s104.57-4.12,153.16-42.82s14,114.46-124.34,138.33
		c0,0-55.99,9.88-111.98,7.41c0,0-12.35,17.29-13.17,44.46c-0.82,27.17-5.76,126.81-70.81,125.16c0,0-32.11,4.94-32.11-20.59
		s58.46-8.23,74.93-78.22S233.12,299.63,233.12,299.63z"/>
	<path class="st2" d="M206.8,298.62c-22.76-23.05-40.22-50.89-40.22-50.89c-43.37-68.57,8.9-142.74,11.13-106.92
		c2.23,35.83,19.88,33.35,40.99,82.26s-2.68,86.45-2.68,86.45s-12.14,13.75-8.86-9.81L206.8,298.62z"/>
	<path class="st3" d="M145.01,187.65"/>
	<path class="st3" d="M208.41,304.57"/>
</g>
</svg>
